<svg xmlns="http://www.w3.org/2000/svg" viewBox="0 0 82.59 33.05"><defs><style>.cls-1{fill:#037741;}.cls-2{fill:#047741;}.cls-3{fill:#067741;}.cls-4{fill:#077741;}</style></defs><g id="Layer_2" data-name="Layer 2"><g id="nestle-logo"><path class="cls-1" d="M82.12,11H79.59c-.2,0-.42,0-.49.22-.23.77-.63.52-1.08.21a3.79,3.79,0,0,0-4.1-.27,5.22,5.22,0,0,0-2.53,5.34c.47,3.52,3.47,5.11,6.57,3.47.4-.21.54-.07.55.32,0,.62,0,1.25,0,1.88a2.11,2.11,0,0,1-2,2.12,2.16,2.16,0,0,1-2.41-1.79c-.06-.34-.16-.53-.54-.5s-.59,0-.66.43a3.39,3.39,0,0,1-1,1.8,8.34,8.34,0,0,1-4.14,2.26,21.76,21.76,0,0,1-10-.22c-3.64-.81-7.15-2.12-10.76-3-5.12-1.33-10.27-1.93-15.5-.65a30.77,30.77,0,0,0-11.89,5.56c-.66.51-.65.54.09.94,2.33,1.26,4.68,2.51,7,3.79a.73.73,0,0,0,1.05-.16,18.62,18.62,0,0,1,15-5.51,78.49,78.49,0,0,1,9.14,1.4c3.6.64,7.2,1.33,10.9.94,4.2-.44,8.12-1.47,10.82-5.3a2.15,2.15,0,0,0,.21.35,4.53,4.53,0,0,0,5.12,1.28,4.31,4.31,0,0,0,2.77-4.32c0-2.89,0-5.78,0-8.68,0-.5,0-.9.63-1,.33,0,.29-.33.29-.57S82.34,11,82.12,11Zm-3.6,5.71a1.71,1.71,0,0,1-2.36,1.74c-1.2-.35-1.85-1.52-1.73-3.12A2.46,2.46,0,0,1,76.53,13a1.64,1.64,0,0,1,2,1.68v2.09Z"/><path class="cls-1" d="M22.49,21.7c-.32-.35-.65-.06-.94.18A9.8,9.8,0,0,1,12.89,24a9.45,9.45,0,0,1-7.43-6.85,8.79,8.79,0,0,1,2.6-9.3,6.88,6.88,0,0,1,9.22-.6c.42.31.57.11.79-.18l5-6.48c.1-.15.33-.28.22-.49S22.93,0,22.75,0H6.9a1,1,0,0,0-.72.24C2.44,3.66.08,7.74,0,12.92a10.21,10.21,0,0,0,.31,3,12.81,12.81,0,0,0,8.92,9.69c4.84,1.54,9.17.35,13-3C22.47,22.4,22.87,22.1,22.49,21.7Z"/><path class="cls-2" d="M43.47,5.49c.56.07.57.43.57.88q0,5.42,0,10.85a2.94,2.94,0,0,0,2.46,3.12A9.53,9.53,0,0,0,50,20.4a2.29,2.29,0,0,0,1.93-2.07c.06-.55,0-1.11.06-1.66,0-.16,0-.52.24-.36.56.31,1.28.31,1.57,1.18a4.65,4.65,0,0,0,4,3.23,4.53,4.53,0,0,0,4.58-1.84c.2-.27.57-.64.24-.95s-.62.17-.85.39c-1.35,1.3-4.23.86-4.77-1.09l1-.1c1.88-.22,3.43-1.36,3.68-2.87a1.5,1.5,0,0,1,1-1.23c.92-.42,1.39-.13,1.39.87,0,2,0,4,0,5.93,0,.5.13.68.65.66,1,0,1.93,0,2.89,0,.22,0,.52.11.57-.26s0-.57-.41-.64A.56.56,0,0,1,67.2,19c0-1.76,0-3.52,0-5.28A.9.9,0,0,1,68.78,13a1.71,1.71,0,0,0,2.41,0,3.4,3.4,0,0,0-.69-5.36c-.24-.11-.47-.17-.64.08s0,.4.15.56a3.56,3.56,0,0,1,.81,1,.94.94,0,0,1,0,1.2c-.39.4-.79.23-1.19,0a4,4,0,0,0-1.27-.67A.94.94,0,0,0,67.12,11c0,.26.16.55-.13.72s-.54,0-.73-.28a1.83,1.83,0,0,0-2.15-.55,6.77,6.77,0,0,0-2,1.06c-.39.28-.62.41-1-.1a2.42,2.42,0,0,0-1.58-.95A4.9,4.9,0,0,0,55,12.12a5.16,5.16,0,0,0-1.6,3.38c-1.36-.39-1.45-.51-1.45-1.82,0-.7,0-1.4,0-2.1,0-.39-.12-.59-.54-.54-.19,0-.39,0-.58,0-.64,0-1.48-.27-1.89.12s-.06,1.28-.15,1.94a1.37,1.37,0,0,0,.92,1.65c.3.12.69.24.67.74,0,.7,0,1.4,0,2.1a1.23,1.23,0,0,1-1.21,1.28,1.58,1.58,0,0,1-2-1.75c.07-3.93,0-7.87,0-11.8,0-.56-.14-.77-.72-.75-1,0-1.93,0-2.89,0-.22,0-.46,0-.48.3S43.12,5.44,43.47,5.49ZM56.73,15.6A3.62,3.62,0,0,1,58,13a1.31,1.31,0,0,1,1.66-.1,1.19,1.19,0,0,1,0,1.53A3.17,3.17,0,0,1,57.3,16C56.86,16,56.65,15.92,56.73,15.6Z"/><path class="cls-2" d="M20.71,11.57a.61.61,0,0,0-.09.68.43.43,0,0,0,.63.12c.52-.25.64,0,.63.47v3a.61.61,0,0,1-.17.52,9.26,9.26,0,0,1-2.05,1.47c-.72.34-1.13.08-1.13-.7,0-1.45,0-2.9,0-4.34,0-.45.07-.76.57-.83s.37-.3.35-.59-.31-.3-.53-.3H16.44c-.19,0-.42,0-.49.2-.26.79-.67.54-1.15.21a3.92,3.92,0,0,0-4.76.2,5.5,5.5,0,0,0-.13,8.13,3.78,3.78,0,0,0,5.06,0c.6-.5.94-.46,1.44.18a1.43,1.43,0,0,0,2.23.43,10,10,0,0,0,1.18-.83c.66-.56,1.3-1.14,2.07-1.82,0,.83,0,1.51,0,2.18,0,.42.14.53.54.53,1,0,2,0,3,0,.23,0,.55.13.58-.31a.48.48,0,0,0-.45-.6c-.33-.06-.47-.23-.47-.6,0-1.78,0-3.57,0-5.35a.84.84,0,0,1,.18-.61.68.68,0,0,1,.84-.24c.34.17.36.47.17.79a1,1,0,0,0,.13,1.27,1.2,1.2,0,0,0,1.26.32,2.22,2.22,0,0,0,1.77-1.86,2.24,2.24,0,0,0-3.92-1.75c-.77.86-.77.86-1.45,0A2.17,2.17,0,0,0,20.71,11.57Zm-8.15,6.75a2.85,2.85,0,0,1-1.31-2.91A2.43,2.43,0,0,1,13.11,13a1.67,1.67,0,0,1,2.24,1.73c0,.34,0,.67,0,1v.87A1.79,1.79,0,0,1,12.56,18.32Z"/><path class="cls-3" d="M29.81,5.48c.61.07.61.47.6.93q0,5.43,0,10.85a2.91,2.91,0,0,0,3.17,3.21c2.12,0,4.25,0,6.37,0a2.77,2.77,0,0,0,2.88-2.13c.29-1.26-.25-2.13-1.75-2.86a11.31,11.31,0,0,1-1.75-.85.87.87,0,0,1-.45-.85.85.85,0,0,1,.78-.65,2.92,2.92,0,0,1,2,.37c.31.17.5.2.66-.19.23-.58.5-1.15.76-1.72.18-.4.07-.56-.39-.56-1.47,0-2.94,0-4.41,0a2.29,2.29,0,0,0-2.08,1.44,2.22,2.22,0,0,0,.86,2.91c.61.39,1.28.68,1.88,1.08a1.1,1.1,0,0,1,.45,1.39,1.23,1.23,0,0,1-1.21.86A2.14,2.14,0,0,1,36,17.37c-.13-.29-.22-.47-.56-.29s-.63.14-.41.63a.73.73,0,0,1-1.33.61,1.63,1.63,0,0,1-.08-.63V11.54c0-2.1,0-4.19,0-6.29,0-.48-.12-.7-.65-.68-1,0-2,0-3,0-.26,0-.48,0-.5.36S29.52,5.44,29.81,5.48Z"/><path class="cls-4" d="M64.85,3c0,.6.37.81.91.56.25-.1.47-.26.71-.36a.38.38,0,0,1,.56.15.41.41,0,0,1-.16.57c-.2.12-.42.23-.62.37-.54.35-.55.77,0,1.1a1.66,1.66,0,0,1,.83,1.12.82.82,0,0,0,.84.66.8.8,0,0,0,.85-.65,1.78,1.78,0,0,1,.89-1.16c.46-.29.45-.71,0-1-.2-.14-.41-.26-.62-.38a.43.43,0,0,1-.22-.6c.14-.27.4-.24.64-.13s.37.22.57.31c.59.29.93.11,1-.53a1.77,1.77,0,0,1,.57-1.28.8.8,0,0,0,.21-1,.87.87,0,0,0-1-.47,2.58,2.58,0,0,1-.92.09c-.43-.08-.78-.62-1.27-.25s-.2.85-.25,1.29c0,.26-.17.42-.4.43s-.44-.15-.46-.44,0-.43,0-.65c0-.69-.36-.91-1-.6a1.67,1.67,0,0,1-1.31.16.86.86,0,0,0-1.07.38.83.83,0,0,0,.22,1.1A1.66,1.66,0,0,1,64.85,3Z"/></g></g></svg>