<svg xmlns="http://www.w3.org/2000/svg" viewBox="0 0 197.84 132.66"><defs><style>.cls-1{fill:#cf4541;}.cls-2{fill:#952e2c;}.cls-3{fill:#962d2c;}.cls-4{fill:#cf4642;}</style></defs><g id="Layer_2" data-name="Layer 2"><g id="nestle-logo"><path class="cls-1" d="M84.78,132.53c8.51-13,16.38-25.15,24.28-37.22Q139,49.59,168.85,3.84c1.72-2.64,3.47-3.91,6.77-3.78,7.09.27,14.21.08,22.22.08-3,4.64-5.38,8.55-7.89,12.39Q152,70.58,114.08,128.66c-1.83,2.82-3.73,4.09-7.18,4C99.93,132.33,92.94,132.53,84.78,132.53Z"/><path class="cls-2" d="M0,132.28Q0,66.34,0,.4C7,.31,14,.35,20.94.08c3.61-.14,3,2.19,3,4.27q.1,25.46.19,50.92A44,44,0,0,1,24,80.14c0,15.93-.17,31.86,0,47.78,0,3.66-.8,5-4.63,4.71C13,132.23,6.47,132.37,0,132.28Z"/><path class="cls-3" d="M79.74,130.65V115.8c0-36.81.1-73.61-.12-110.42C79.59.77,81-.25,85.17.05a148,148,0,0,0,15.48,0C103.3,0,104,.88,104,3.47q-.11,44.72,0,89.43a8,8,0,0,1-1.37,4.67q-11,16.62-21.87,33.31Z"/><path class="cls-4" d="M24,80.14q0-12.44.1-24.87c15.49,0,31,.13,46.46,0,3.73,0,5.41.7,5.09,4.86a105.48,105.48,0,0,0,0,15c.25,3.77-1,4.92-4.72,4.87-13.82-.17-27.65-.1-41.47-.08C27.65,79.86,25.83,80,24,80.14Z"/></g></g></svg>