<svg xmlns="http://www.w3.org/2000/svg" viewBox="0 0 59.21 44.7"><defs><style>.cls-1{fill:#fff;}.cls-2{fill:#5ac4ed;}.cls-3{fill:#9fc37d;}.cls-4{fill:#91c369;}.cls-5{fill:#446375;}.cls-6{fill:#ecc850;}.cls-7{fill:#acc88f;}.cls-8{fill:#aac688;}.cls-9{fill:#93c27c;}.cls-10{fill:#bacb99;}.cls-11{fill:#a5c586;}.cls-12{fill:#31639c;}.cls-13{fill:#94c467;}.cls-14{fill:#407066;}.cls-15{fill:#93b27f;}.cls-16{fill:#b0b096;}.cls-17{fill:#bacfa0;}.cls-18{fill:#c0cea7;}.cls-19{fill:#c0d2b2;}.cls-20{fill:#226cab;}.cls-21{fill:#3b6889;}.cls-22{fill:#376877;}.cls-23{fill:#31599c;}.cls-24{fill:#32599d;}.cls-25{fill:#335a9a;}.cls-26{fill:#32599c;}.cls-27{fill:#395c9d;}.cls-28{fill:#325a9c;}.cls-29{fill:#355a9f;}.cls-30{fill:#365a9d;}.cls-31{fill:#355997;}.cls-32{fill:#3b5a9b;}.cls-33{fill:#355b9a;}.cls-34{fill:#355a97;}.cls-35{fill:#395a98;}.cls-36{fill:#3a5c9b;}.cls-37{fill:#385b9b;}.cls-38{fill:#3a5b99;}.cls-39{fill:#365991;}.cls-40{fill:#3d5c98;}.cls-41{fill:#415f90;}.cls-42{fill:#4e6292;}.cls-43{fill:#355a98;}.cls-44{fill:#455f8b;}.cls-45{fill:#445b88;}.cls-46{fill:#3c5886;}.cls-47{fill:#4d638b;}.cls-48{fill:#3b5b8a;}.cls-49{fill:#5c74a0;}.cls-50{fill:#8fc462;}.cls-51{fill:#85bd79;}.cls-52{fill:#929d9a;}.cls-53{fill:#555c4c;}</style></defs><g id="Layer_2" data-name="Layer 2"><g id="nestle-logo"><path class="cls-1" d="M29,13.58l0,0h0a.06.06,0,0,1,0,0Z"/><path class="cls-1" d="M30.53,8.53h0a.93.93,0,0,0,.07.2A.43.43,0,0,0,30.53,8.53Z"/><path class="cls-2" d="M28.06,15.15c-.81-.25-1-.82-.94-1.63,0-1.08-.06-2.16-.1-3.24h0c-1-2-2.28-3.66-4.65-4.08h0c-.26,0-.52,0-.77,0-.8.11-2-.39-2.28.48s1,.89,1.61,1.33c.37.27,1,.69.71,1-1.33,1.66.27,1.74,1.11,2.26a4.71,4.71,0,0,1,.7.64c-1.85,1.76.68,2.74.82,4.56-1-.85-1.84-1.49-2.62-2.16a.65.65,0,0,1,0-1c1.16-1.1.42-1.6-.6-2.06C19.73,10.67,19,10,20.63,8.88c-.67-1-2.43-1-2.39-2.38,0-.83,1-1.1,1.83-1l3.12-.08h0a8,8,0,0,0-3.61-1.16c-1.34-.21-3-.75-3.57.81-.51,1.3.88,2.09,1.89,2.8.34.23,1.14.39.45,1.09-1.16,1.18-.09,1.9.65,2.49,1,.79,2.3,1.29,1.17,2.92-.22.31.12.71.33,1,1.94,3,5.5,3.07,7.7.16h0l-.14-.4Z"/><path class="cls-3" d="M17.91,19.22a2.33,2.33,0,0,0,3,1.69,41.14,41.14,0,0,1,6.15-.74h0c1.58-.86,3.42.19,5-.66-3.94-.09-7.88-.39-11.8.24a1.18,1.18,0,0,1-1.54-1c-.67-2.29-1.31-4.59-2.1-6.84-1.07-3-1.93-6.15-3.85-9.12-.28,2,.59,3.35,1.24,4.68C15.85,11.24,16.49,15.36,17.91,19.22Z"/><path class="cls-4" d="M36.32,9.73h0c-2.32,2.34-4.33,5-6.95,7-.33.6-.44,1.11.47,1.23h0a27.21,27.21,0,0,0,7-7C36.72,10.54,36.83,10,36.32,9.73Z"/><path class="cls-5" d="M31.09,9c-.52.42-.48,0-.51-.25a.93.93,0,0,1-.07-.2c-1.54.33-1.22,1.91-1.88,2.83l.52.74c1-.64,1.42-1.88,2.56-2.36h0A6.27,6.27,0,0,1,34,7.67a3.81,3.81,0,0,1,1.6-1.4h0L38,4.4h0l-.18-.57h0a43.49,43.49,0,0,0-5.28,3.65h0A14.91,14.91,0,0,1,31.09,9Z"/><path class="cls-6" d="M27.08,8.47h0a3.75,3.75,0,0,1,.78,1.83h0l.58.81c.22-1.16.26-2.44,1.82-2.73.15-.1.21,0,.25.16h0l.35-.64h0l-.45-.34c-.48-.31-1.52-.27-1.25-1s1.1-.31,1.7-.14h.75C29.91,4.92,29,5,27.79,6.81c-.24.35-.52.69-.78,1Z"/><path class="cls-6" d="M28.63,11.37c.66-.92.34-2.5,1.88-2.83,0-.14-.1-.26-.25-.16-1.56.29-1.6,1.57-1.82,2.73l.19.26Z"/><path class="cls-7" d="M29.31,2.56A67.58,67.58,0,0,1,41.79.3C37.4-.14,33.15.15,29.31,2.56Z"/><path class="cls-8" d="M39.82,16.72h0Q41.41,11.91,43,7.1c-.06-.32-.07-.67-.43-.83a48.32,48.32,0,0,0-3.17,9.61C39.48,16.19,39.48,16.54,39.82,16.72Z"/><path class="cls-9" d="M38.73,6.06a8.71,8.71,0,0,0-1.91,2.53h0c-.15.33-.29.67-.44,1l.23.05c.49.39.37.87.18,1.35a15,15,0,0,1,2.3-3.69c.82-1,1.92-1.69,2.39-2.93l-.87-.82C40.46,4.74,39.47,5.32,38.73,6.06Z"/><path class="cls-9" d="M36.61,9.64l-.23-.05-.06.14c.51.29.4.81.47,1.26C37,10.51,37.1,10,36.61,9.64Z"/><path class="cls-10" d="M31.09,20a28.53,28.53,0,0,0-4,.15h0c2.68,0,5.36,0,8,.08,3.66.12,3.66.16,4.72-3.53h0c-.75,0-.5-.45-.41-.84A10.34,10.34,0,0,0,38.58,19c-.16,1.07-.67,1.36-1.76,1.09a13,13,0,0,0-4.76-.6h0C32.07,20.29,31.46,20,31.09,20Z"/><path class="cls-10" d="M27.06,20.17a28.53,28.53,0,0,1,4-.15c.37,0,1,.27,1-.51h0C30.48,20.36,28.64,19.31,27.06,20.17Z"/><path class="cls-10" d="M39.82,16.72c-.34-.18-.34-.53-.41-.84C39.32,16.27,39.07,16.74,39.82,16.72Z"/><path class="cls-11" d="M15.87.93h0a33.3,33.3,0,0,1,9.6.73l.44-.45h0A18,18,0,0,0,15.44.48l.43.45Z"/><path class="cls-12" d="M22.54,5.9a5.74,5.74,0,0,1,4.51,3.61V9.17a4,4,0,0,1-.23-.57A.81.81,0,0,1,27,7.84,8.84,8.84,0,0,0,23.19,5.4h0a1.44,1.44,0,0,1-1.07.49Z"/><path class="cls-12" d="M21.38,5.87a3.64,3.64,0,0,0-.66,0A4.82,4.82,0,0,0,21.38,5.87Z"/><path class="cls-12" d="M20.72,5.86a3.64,3.64,0,0,1,.66,0,2.38,2.38,0,0,1,.38,0h.36a1.44,1.44,0,0,0,1.07-.49l-3.12.08A1,1,0,0,0,20.72,5.86Z"/><path class="cls-12" d="M27.05,9.51A5.74,5.74,0,0,0,22.54,5.9h-.42a1.5,1.5,0,0,1-.3,0,.91.91,0,0,1,.55.31c2.37.42,3.69,2,4.65,4.08h0Z"/><path class="cls-12" d="M22.12,5.89h-.3A1.5,1.5,0,0,0,22.12,5.89Z"/><path class="cls-12" d="M26.83,8.6a4,4,0,0,0,.23.57c0-.23,0-.46,0-.7h0L27,7.84A.81.81,0,0,0,26.83,8.6Z"/><path class="cls-13" d="M40.62,3.46c.63,0,.76.42.86.91.71-.73,1.75-1.55.86-2.57s-1.91-.17-2.81.31a1.34,1.34,0,0,0-.79,1,3.86,3.86,0,0,1,1.83.38Z"/><path class="cls-13" d="M40.62,3.46l0,.06,0,0h0l.87.82C41.38,3.88,41.25,3.44,40.62,3.46Z"/><path class="cls-14" d="M38.12,4.26a.5.5,0,0,1,0,.13c.51-.11.94-.67,1.62-.21l-3.4,3.55a.78.78,0,0,1,.36.33c.83-1.87,2.56-3,3.87-4.48a1.6,1.6,0,0,1-1.78-.44l-.91.69h0A.59.59,0,0,1,38.12,4.26Z"/><path class="cls-14" d="M38.07,4.39a.5.5,0,0,0,0-.13.59.59,0,0,0-.29-.43L38,4.4Z"/><path class="cls-14" d="M36.82,8.59a8.71,8.71,0,0,1,1.91-2.53c.74-.74,1.73-1.32,1.88-2.51h0l-.09,0c-1.31,1.47-3,2.61-3.87,4.48a1.83,1.83,0,0,1,.17.53Z"/><path class="cls-14" d="M40.52,3.58l0-.06a3.86,3.86,0,0,0-1.83-.38A1.6,1.6,0,0,0,40.52,3.58Z"/><polygon class="cls-14" points="40.61 3.55 40.61 3.55 40.61 3.55 40.61 3.55"/><path class="cls-14" d="M40.57,3.52l0,.06.09,0Z"/><path class="cls-15" d="M29.05,16.76l.13-.15c-.39-.41.06-.73.33-1,.71-.8,1.43-1.57,2.14-2.35-1.09.13-1.44,1.31-2.39,1.7-.48-.36-.16-.88-.27-1.3h0l-.75,1.3.06.08a.52.52,0,0,1-.07.56h0c.81.5.3,1.22.32,1.86.05,1.09.55,1.13,1.32.58C28.59,18.21,28.76,17.53,29.05,16.76Z"/><path class="cls-15" d="M28.27,15l-.06-.08-.15.24h0l.14.4A.52.52,0,0,0,28.27,15Z"/><path class="cls-15" d="M29.37,16.76a1,1,0,0,1-.19-.15l-.13.15c-.29.77-.46,1.45.79,1.23h0C28.93,17.87,29,17.36,29.37,16.76Z"/><path class="cls-16" d="M31,6.64c.18.39.56.77.06,1.16a.59.59,0,0,1-.49.73h0a.43.43,0,0,1,0,.21c.05.09.13.11.3-.06.49-.49.87-1.14,1.67-1.2-.31-.37-.61-.75-.92-1.13a1.22,1.22,0,0,1-.44.28Z"/><path class="cls-16" d="M30.88,8.68c-.17.17-.25.15-.3.06,0,.29,0,.67.51.25a14.91,14.91,0,0,0,1.46-1.51h0C31.75,7.54,31.37,8.19,30.88,8.68Z"/><path class="cls-16" d="M31,7.8l-.13.09h0l-.35.64A.59.59,0,0,0,31,7.8Z"/><path class="cls-16" d="M30.88,6.36a1,1,0,0,0,.08.28h.23a1.22,1.22,0,0,0,.44-.28h-.75Z"/><path class="cls-17" d="M43,7.1a12.25,12.25,0,0,0,1.34-4.39,10.34,10.34,0,0,0-1.77,3.56C43.34,6.23,43.14,6.68,43,7.1Z"/><path class="cls-17" d="M43,7.1c.13-.42.33-.87-.43-.83C42.94,6.43,43,6.78,43,7.1Z"/><path class="cls-18" d="M15.44.48a2.44,2.44,0,0,0-2.39,1.27L15.87.93C15.47,1,15.34.86,15.44.48Z"/><path class="cls-18" d="M15.87.93h0L15.44.48C15.34.86,15.47,1,15.87.93Z"/><path class="cls-19" d="M25.47,1.66a3.9,3.9,0,0,0,2.22.66,2.27,2.27,0,0,0-1.78-1.11C26,1.58,25.88,1.76,25.47,1.66Z"/><path class="cls-19" d="M25.47,1.66c.41.1.52-.08.44-.45h0Z"/><path class="cls-20" d="M18.77,6.62c-.2.82.72.92,1.19,1.3.29.24.94.51.85.69-1,1.8.51,2.34,1.49,3.17a.74.74,0,0,1,.13.91c-.72,1.13,0,1.75,1,2.62-.69-1-1.48-1.65-.76-2.75.48-.75-.35-1-.78-1.28-.77-.5-1.61-.81-.89-2,.51-.89-.58-.93-1-1.32S18.61,7.47,19,6.57c.23-.61.8-.68,1.36-.68h0C19.66,5.87,19,5.83,18.77,6.62Z"/><path class="cls-20" d="M20.31,5.89c-.56,0-1.13.07-1.36.68-.34.9.63.94,1.05,1.35s1.49.43,1,1.32c-.72,1.23.12,1.54.89,2,.43.28,1.26.53.78,1.28-.72,1.1.07,1.75.76,2.75-.94-.87-1.7-1.49-1-2.62a.74.74,0,0,0-.13-.91c-1-.83-2.48-1.37-1.49-3.17.09-.18-.56-.45-.85-.69-.47-.38-1.39-.48-1.19-1.3s.89-.75,1.53-.74a1.36,1.36,0,0,1-.23-.4c-.85-.08-1.81.19-1.83,1,0,1.4,1.72,1.35,2.39,2.38-1.65,1.07-.9,1.79.42,2.38,1,.46,1.76,1,.6,2.06a.65.65,0,0,0,0,1c.78.67,1.59,1.31,2.62,2.16-.14-1.82-2.67-2.8-.82-4.56a4.71,4.71,0,0,0-.7-.64c-.84-.52-2.44-.6-1.11-2.26.26-.33-.34-.75-.71-1-.58-.44-1.86-.52-1.61-1.33s1.48-.37,2.28-.48c.25,0,.51,0,.77,0h0C21.8,5.74,20.86,6.45,20.31,5.89Z"/><path class="cls-20" d="M20.3,5.88h1.08a4.82,4.82,0,0,1-.66,0l-.17,0Z"/><path class="cls-20" d="M21.82,5.89h0Z"/><path class="cls-20" d="M21.76,5.88a2.38,2.38,0,0,0-.38,0h.38Z"/><path class="cls-20" d="M20.3,5.88h.25l.17,0a1,1,0,0,1-.65-.38A1.36,1.36,0,0,0,20.3,5.88Z"/><path class="cls-20" d="M21.82,5.89H20.31c.55.56,1.49-.15,2.06.31h0A.91.91,0,0,0,21.82,5.89Z"/><path class="cls-21" d="M29,13.36h0c-.43-.09-1.37.82-1.11-.63a8,8,0,0,0,0-1.76c-.11-.21-.18-.45-.31-.65a4.11,4.11,0,0,0-.28-.65,1.05,1.05,0,0,1-.06.24c.05.1.1.21.14.31.46,1.43-.21,3.06.64,4.42a1.09,1.09,0,0,1,.86-1.1l.09.07,0,0A1.5,1.5,0,0,1,29,13.36Z"/><path class="cls-21" d="M27.37,10.22c0-.1-.09-.21-.14-.31a1.28,1.28,0,0,1-.21.37c0,1.08.14,2.16.1,3.24,0,.81.13,1.38.94,1.63a3.14,3.14,0,0,1,0-.51C27.16,13.28,27.83,11.65,27.37,10.22Z"/><path class="cls-21" d="M27.29,9.67a4.11,4.11,0,0,1,.28.65c.13.2.2.44.31.65,0-.22,0-.45,0-.67a3.75,3.75,0,0,0-.78-1.83h0A2.82,2.82,0,0,1,27.29,9.67Z"/><path class="cls-21" d="M27.29,9.67c-.08-.17-.16-.33-.23-.5v.34l.18.4A1.05,1.05,0,0,0,27.29,9.67Z"/><path class="cls-21" d="M27.05,9.51l0,.77h0a1.28,1.28,0,0,0,.21-.37Z"/><path class="cls-21" d="M27.29,9.67a2.82,2.82,0,0,0-.21-1.2c0,.24,0,.47,0,.7S27.21,9.5,27.29,9.67Z"/><path class="cls-21" d="M28,14.64a2.34,2.34,0,0,0,.2.27l.75-1.3-.09-.07A1.09,1.09,0,0,0,28,14.64Z"/><path class="cls-21" d="M28.06,15.15h0l.15-.24a2.34,2.34,0,0,1-.2-.27A3.14,3.14,0,0,0,28.06,15.15Z"/><path class="cls-22" d="M36,7.73c-1.46,1.8-2.24,4.13-4.28,5.47a.73.73,0,0,1,0,.77,32.48,32.48,0,0,0,3.42-3.71,1.42,1.42,0,0,1,1.18-.67,2,2,0,0,1,.22-1.16l0,0a1.14,1.14,0,0,1-.31-.64l-.08,0Z"/><path class="cls-22" d="M36.28,9.59a1.42,1.42,0,0,0-1.18.67A32.48,32.48,0,0,1,31.68,14a9.3,9.3,0,0,1-.68.74c-.53.69-1.42,1.11-1.63,2.05,2.62-2,4.63-4.69,7-7h0A.74.74,0,0,1,36.28,9.59Z"/><path class="cls-22" d="M36.52,8.38l0,0a2,2,0,0,0-.22,1.16h.1c.15-.33.29-.67.44-1h0A.85.85,0,0,1,36.52,8.38Z"/><path class="cls-22" d="M36.32,9.73h0l.06-.14h-.1A.74.74,0,0,0,36.32,9.73Z"/><path class="cls-22" d="M36.21,7.74a1.14,1.14,0,0,0,.31.64,3.05,3.05,0,0,1,.13-.32.78.78,0,0,0-.36-.33h-.08Z"/><path class="cls-22" d="M36.82,8.59a1.83,1.83,0,0,0-.17-.53,3.05,3.05,0,0,0-.13.32A.85.85,0,0,0,36.82,8.59Z"/><path class="cls-22" d="M31.68,14a.73.73,0,0,0,0-.77l0,0h0c-.71.78-1.43,1.55-2.14,2.35-.27.31-.72.63-.33,1C30,15.67,30.82,14.82,31.68,14Z"/><path class="cls-22" d="M31,14.71a9.3,9.3,0,0,0,.68-.74c-.86.85-1.72,1.7-2.5,2.64a1,1,0,0,0,.19.15C29.58,15.82,30.47,15.4,31,14.71Z"/><path class="cls-23" d="M21.25,32.65a3,3,0,0,0,2.16-2.25c.29-1.22-.57-1.75-1.56-2.23,1.19-.71,2.17-1.48,1.76-2.83s-1.81-1.19-2.94-1.25a11.2,11.2,0,0,1-1.16,0c-1.64-.27-2.33.34-2.6,2.06A24.54,24.54,0,0,1,15.26,33C17.28,32.92,19.3,33.29,21.25,32.65ZM18.68,27c.29-.78-.05-2.14,1.37-1.84.92.07,1.66.22,1.53,1.18-.17,1.17-1.12,1.43-2.11,1.54C18.85,28,18.44,27.71,18.68,27Zm-.81,4.07c.29-.87-.19-2.43,1.62-2.24.88.1,2,.1,1.83,1.38s-1.23,1.62-2.39,1.64C18.44,31.78,17.54,32.07,17.87,31.09Z"/><path class="cls-24" d="M15.24,25c.27-1.1-.52-.87-1-.79s-1.15-.63-1.14.73a23.84,23.84,0,0,1-1,5.49,1.91,1.91,0,0,1-2.5,1.52c-1.36-.3-.9-1.41-.79-2.21A47.73,47.73,0,0,1,9.75,25c.2-.86-.29-.9-.81-.8s-1.39-.4-1.31.36C7.84,26.37,7,28,6.86,29.8c-.26,2.66.38,3.39,3.07,3.36,2.42,0,3.59-.76,4.17-2.93C14.58,28.5,14.81,26.7,15.24,25Z"/><path class="cls-25" d="M9.93,41.19h0c-.23,1-.4,2-1.58,2.21a1.79,1.79,0,0,1-1.75-.6c-1.13-1.18-.66-4,.87-5.22s3.11-1,4.68,1.13c-.54-1.27,1.06-2.42-.83-2.93A5.82,5.82,0,0,0,4,41.62a3.26,3.26,0,0,0,2,2.84c1.73.91,3.25-1.08,4.91-.2l.68-3A1,1,0,0,0,9.93,41.19Z"/><path class="cls-26" d="M3.27,26.12C2.31,30.36,2.12,34.8,0,38.81a2.59,2.59,0,0,0,1.92-.93c1.21-1.29,1.43-3,1.83-4.6.77-3,1-6.18,2.14-9.08C4.18,23.7,3.65,24.44,3.27,26.12Z"/><path class="cls-27" d="M35.9,31.61a8.62,8.62,0,0,1-.88.18c-3.58.38-3.59.36-2.92-3.15.17-.89.39-1.77.5-2.66.07-.63,1-1.51-.34-1.84-1.18-.29-1.27.55-1.5,1.42-.64,2.47-.62,5.09-1.84,7.41C35.42,33.27,35.42,33.27,35.9,31.61Z"/><path class="cls-28" d="M58.45,24.12c-.77,0-1.54,0-2.31,0h0c-.37.46-.9.35-1.38.33s-.82.17-.55.76h0c.22,2.2-.62,4.23-1,6.33-.23,1.19.07,1.52,1.19,1.38a9,9,0,0,1,1,0c-.67-2,.47-3.77.6-5.62.1-1.53.61-2.44,2.36-2,.34.08.86.09.85-.46A.77.77,0,0,0,58.45,24.12Z"/><path class="cls-29" d="M49.61,29.55c-1.41-.56-1-2.26-2-3.11A6.82,6.82,0,0,1,47,26c-.61-.51-.63-2-1.84-1.44-.78.33.23,1.31-.24,1.93.66-.37.75.23.92.58.59,1.2,1.08,2.45,1.73,3.61.49.85.35,2.46,1.82,2.27s.73-1.78,1.18-2.65C50.29,30,50.17,29.5,49.61,29.55Z"/><path class="cls-30" d="M25.94,26.11c-.38,2.31-.55,4.7-1.63,6.85a5.46,5.46,0,0,1,.9,0c1.13.19,1.53,0,1.71-1.4a28,28,0,0,1,1.66-7.36C26.87,23.69,26.22,24.42,25.94,26.11Z"/><path class="cls-31" d="M44.94,24.4c1-.5,1.8.15,2.14,1.25a2.75,2.75,0,0,0,.55.79,16,16,0,0,0-.7-1.78c-.58-1.07-1.61-.36-2.42-.53-.21,0-.59-.16-.52.45.21,1.89-.55,3.65-.89,5.47-.17.88,0,2.42-.88,2.47-1.14.06-.49-1.64-1.12-2.34,0,1.05-.16,2-1.57,1.69h0c-.14.87.28,1.15,1.09,1.13,1.23,0,2.45,0,3.67,0-.67-2.32.72-4.33.64-6.49h0C44.65,25.78,44,24.86,44.94,24.4Z"/><path class="cls-31" d="M45.17,24.57C46.38,24,46.4,25.5,47,26a6.82,6.82,0,0,0,.62.43,2.75,2.75,0,0,1-.55-.79c-.34-1.1-1.12-1.75-2.14-1.25s-.29,1.38,0,2.1h0C45.4,25.88,44.39,24.9,45.17,24.57Z"/><path class="cls-24" d="M41.1,30.18c-.29-1.77-.59-3.53-.87-5.3-.19-1.26-1.18-.62-1.83-.76-.94-.22-1,.37-.92,1.06a.85.85,0,0,0,.82.5h0a3.52,3.52,0,0,1,.39,3.46l.4.78c.14.65.29,1.3.44,1.95h0C40.17,31.41,40.5,30.68,41.1,30.18Z"/><path class="cls-24" d="M41.1,30.18c-.6.5-.93,1.23-1.57,1.69h0C40.94,32.13,41.1,31.23,41.1,30.18Z"/><path class="cls-32" d="M53.07,41.56c.64.29,1.8.37,1.29,1.44-.44.91-1.45.92-2.39.57-.51-.19-.73-.71-1.19-1,.26.61-.75,1.2.11,1.77,1.3.86,4.38.18,5-1.24.9-2-.76-2.2-2-2.72s-1.45-1.22-.13-2c-.33-.39-.8-.27-1.21-.34C50.7,39.53,50.85,40.57,53.07,41.56Z"/><path class="cls-33" d="M15.42,37.74c-.52,0-1.06-.38-1.16.68-.2,2-.67,3.89-1.06,6a26,26,0,0,0,2.94,0c.67-.08,1.86.5,1.88-.55,0-.65-1.19-.13-1.82-.31-.46-.13-1.29.38-1.21-.69.06-.78.06-1.59,1.23-1.55.48,0,1.38.52,1.34-.43s-1-.18-1.46-.43a3.49,3.49,0,0,0-.6-.15l.34-1.7-.42-.82Z"/><path class="cls-34" d="M29.39,37.74c-1.11-.26-.89.71-1,1.21-.42,1.74-.74,3.51-1.15,5.48,1.76-.34,3.64.62,5.16-.94a8.6,8.6,0,0,1-2.21,0c-.41,0-1.15.37-1.15-.52,0-.57,0-1.25.59-1.54a2.26,2.26,0,0,1,1.3-.07c.44.07.77.1.77-.47s-.28-.53-.63-.47c-1.83.32-1.34-.87-1.2-1.83l-.47-.85Z"/><path class="cls-35" d="M46.75,38a3.86,3.86,0,0,0-2.56,3.11,2.6,2.6,0,0,0,1.71,3.25c1.42.52,2.63.21,4-1.23-1.66.22-3,.92-3.85-.57a2.76,2.76,0,0,1,.57-3.35c.21-.24.45-.45.68-.67L46.75,38Z"/><path class="cls-36" d="M38.68,37.81l-1.15.65c1.11.67,1.12,1.51.15,2.23-.51.38-1.42,1.25-1.77-.28-.45,0-.9,0-1.15-.47h0a3.72,3.72,0,0,0-.43,2c.58.45.91-.08,1.3-.34h0c1,.09.95,1.09,1.3,1.69.66,1.14.6,1.17,2.16.74-.81-1.29-1.61-2.42.32-3.68C40.38,39.71,40.41,38.24,38.68,37.81Z"/><path class="cls-37" d="M24.81,42l-1.64-3.16c-.61-.19-1.58-1.6-1.53.45.66.57.7,1.49,1.2,2.13.73,1,.5,3.1,2,2.8,1.19-.23.9-2.13,1.07-3.35l-.56-.55C25.22,40.81,25.05,41.29,24.81,42Z"/><path class="cls-38" d="M41.6,39.1a31.18,31.18,0,0,1-1,5c1.44.18,1.42.18,1.68-1,.38-1.77.78-3.54,1.17-5.32C42.29,37.54,41.68,37.61,41.6,39.1Z"/><path class="cls-39" d="M54.34,24.33c.59-.11,1.23.14,1.8-.17h0c-1.73,0-3.79-.56-5.12.18s-.81,3.07-1.34,4.63a2.71,2.71,0,0,0-.07.58c.9-.48.86.24,1,.76a16.51,16.51,0,0,0,.53-2.45c.12-2,1-3.06,3.1-2.61C53.67,24.86,53.48,24.5,54.34,24.33Z"/><path class="cls-39" d="M54.76,24.49c.48,0,1,.13,1.38-.33h0c-.57.31-1.21.06-1.8.17-.86.17-.67.53-.13.92h0C53.94,24.66,54.17,24.47,54.76,24.49Z"/><path class="cls-39" d="M49.61,29.55c.56-.05.68.46,1,.76C50.47,29.79,50.51,29.07,49.61,29.55Z"/><path class="cls-40" d="M38.51,29.19a3.83,3.83,0,0,1-2.19.27A8.54,8.54,0,0,1,38,26.3a1.7,1.7,0,0,0-.15-.22c-.23-.26-.57-.47-.34-.9-1.15,1.71-2.31,3.41-3.44,5.13-.19.27-.63.61-.12,1a.62.62,0,0,0,.87-.12c1-1.9,2.78-1.12,4.3-1.24A1,1,0,0,1,38.51,29.19Z"/><path class="cls-40" d="M37.82,26.08a1.7,1.7,0,0,1,.15.22c.12-.2.23-.41.33-.62h0a.85.85,0,0,1-.82-.5C37.25,25.61,37.59,25.82,37.82,26.08Z"/><path class="cls-40" d="M38.51,29.19a1,1,0,0,0,.58.73l-.4-.78Z"/><path class="cls-41" d="M21.73,38c.76-.38,1.06.35,1.44.8-.06-1.18-.86-1.26-1.75-1.14-.3,0-.63-.17-.7.51-.2,1.77-.63,3.5-.95,5.25-.06.31-.47.75.22.86s.72-.11.8-.72c.2-1.45.56-2.87.85-4.31h0C21.28,38.84,21.18,38.32,21.73,38Z"/><path class="cls-41" d="M23.17,38.84c-.38-.45-.68-1.18-1.44-.8-.55.28-.45.8-.09,1.25C21.59,37.24,22.56,38.65,23.17,38.84Z"/><polygon class="cls-42" points="52.6 38.04 52.6 38.04 52.6 38.04 52.6 38.04"/><path class="cls-42" d="M55.16,37.53A3.48,3.48,0,0,0,52.6,38c.46-.1,1-.47,1.21.34a2.74,2.74,0,0,1,2.53,1.1C56.91,38.1,56.44,37.57,55.16,37.53Z"/><path class="cls-42" d="M52.6,38h0c.41.07.88,0,1.21.34C53.6,37.57,53.06,37.94,52.6,38Z"/><path class="cls-43" d="M34.33,41.93A12.17,12.17,0,0,0,34,43.37c-.05.32-.71.88.21.94.46,0,1.19.39,1.18-.66a13.24,13.24,0,0,1,.28-2.06C35.28,42,35.09,43.07,34.33,41.93Z"/><path class="cls-43" d="M34.33,41.93c.76,1.14,1,.1,1.3-.34h0C35.24,41.85,34.91,42.38,34.33,41.93Z"/><path class="cls-44" d="M49.66,37.63a3.76,3.76,0,0,0-2.91.39c.48-.12.62.1.53.54.68,0,1.41-.31,2,.17.34.26.59.8.88,0C50.38,38.2,50.41,37.72,49.66,37.63Z"/><path class="cls-44" d="M46.75,38h0l.53.54C47.37,38.12,47.23,37.9,46.75,38Z"/><path class="cls-45" d="M18.67,37.68l-3.25.06h0c.3.19.68.34.42.82.89,0,1.78,0,2.67.08.28,0,.61.32.71-.22S19.21,37.67,18.67,37.68Z"/><path class="cls-45" d="M15.42,37.74l.42.82C16.1,38.08,15.72,37.93,15.42,37.74Z"/><path class="cls-46" d="M32.62,37.67c-1.07,0-2.15,0-3.23.07.33.19.68.37.47.85.89,0,1.78,0,2.66,0,.25,0,.55.84.73,0C33.35,38.07,33.29,37.65,32.62,37.67Z"/><path class="cls-46" d="M29.39,37.74h0l.47.85C30.07,38.11,29.72,37.93,29.39,37.74Z"/><path class="cls-47" d="M25.5,38.82a6.94,6.94,0,0,1-.11,1.5h0c.44-.07.65.08.56.55.3-1,.6-2,.9-3C25.91,37.48,25.34,37.57,25.5,38.82Z"/><path class="cls-47" d="M25.39,40.32h0l.56.55C26,40.4,25.83,40.25,25.39,40.32Z"/><path class="cls-48" d="M36.44,38.5h0l1,0c.1-.85.86-.41,1.28-.65-.82-.05-1.64,0-2.44-.15-1.39-.24-1.51.54-1.39,1.58C35.27,38.76,35.71,38.31,36.44,38.5Z"/><path class="cls-48" d="M37.4,38.46h.13l1.15-.65C38.26,38.05,37.5,37.61,37.4,38.46Z"/><path class="cls-43" d="M36.32,38.93c-.49.07-.94.43-1.47.31l-.09.7A2.31,2.31,0,0,1,36,40.2C36.09,39.77,36.21,39.35,36.32,38.93Z"/><path class="cls-43" d="M35.91,40.41,36,40.2a2.31,2.31,0,0,0-1.21-.26h0C35,40.43,35.46,40.41,35.91,40.41Z"/><path class="cls-43" d="M36.32,38.93l.12-.43h0c-.73-.19-1.17.26-1.59.74C35.38,39.36,35.83,39,36.32,38.93Z"/><path class="cls-49" d="M9.74,40.45c-.92.29.18.46.19.74h0c.59-.81,1.15-.92,1.67.08l1.05-.87A11.33,11.33,0,0,0,9.74,40.45Z"/><path class="cls-49" d="M9.93,41.19h0a1,1,0,0,1,1.67.08C11.08,40.27,10.52,40.38,9.93,41.19Z"/><path class="cls-50" d="M29.16,14.56c.77-.41,1.15-1.77,2.49-1.42l0,0c1.38-1.84,2.3-4,4.09-5.55H36c0-.41.63-1,.07-1.24l-.13.1C35.26,7,34.76,7.57,34.14,8a5.8,5.8,0,0,0-.52.34,3,3,0,0,1-1.25,1.15l-.51.54c-1,.59-1.29,2.15-2.73,2.16l-.15,1a.21.21,0,0,1,.05.17c0,.12,0,.18-.05.18h0a.06.06,0,0,0,0,0A.69.69,0,0,1,29.16,14.56Z"/><path class="cls-50" d="M31.86,10.06l.51-.54a2.71,2.71,0,0,1-.66.23h0c-1.14.48-1.58,1.72-2.56,2.36l0,.11C30.57,12.21,30.85,10.65,31.86,10.06Z"/><path class="cls-50" d="M34.14,8c.62-.46,1.12-1.08,1.75-1.54l.13-.1a1.53,1.53,0,0,0-.42-.12h0A3.81,3.81,0,0,0,34,7.67a4.66,4.66,0,0,1-.38.7A5.8,5.8,0,0,1,34.14,8Z"/><path class="cls-50" d="M31.67,13.18l0,0c-1.34-.35-1.72,1-2.49,1.42a.69.69,0,0,0-.17-.94c.11.42-.21.94.27,1.3.95-.39,1.3-1.57,2.39-1.7h0Z"/><path class="cls-50" d="M29,13.36h0a1.5,1.5,0,0,0,0,.22h0s.05-.06.05-.18a.21.21,0,0,0-.05-.17l0,.13Z"/><path class="cls-50" d="M36,7.73a.31.31,0,0,1,0-.1h-.19c-1.79,1.53-2.71,3.71-4.09,5.55v0C33.72,11.86,34.5,9.53,36,7.73Z"/><path class="cls-50" d="M31.68,13.2v0l0,0h0Z"/><path class="cls-51" d="M36.22,7.71a1.92,1.92,0,0,1,.22-.61,5.12,5.12,0,0,1-.41.54A.73.73,0,0,1,36.22,7.71Z"/><path class="cls-51" d="M36.47,6.47a.62.62,0,0,1,0,.53,11.3,11.3,0,0,1,1.85-1.94c.54-.58-.06-.48-.28-.62-.31.87-1.1,1.26-1.78,1.75A.61.61,0,0,1,36.47,6.47Z"/><path class="cls-51" d="M36.27,6.19c.68-.49,1.47-.88,1.78-1.75l0,0h0L35.6,6.27h0C35.86,6.08,36.09,6.05,36.27,6.19Z"/><path class="cls-51" d="M38.33,5.06A11.3,11.3,0,0,0,36.48,7a1,1,0,0,0,0,.1,1.92,1.92,0,0,0-.22.61l.07,0h0l3.4-3.55c-.68-.46-1.11.1-1.62.21,0,0,0,0,0,.05C38.27,4.58,38.87,4.48,38.33,5.06Z"/><path class="cls-51" d="M38.05,4.44s0,0,0-.05H38Z"/><path class="cls-51" d="M36,7.73l.17,0,.08,0h0v0A.73.73,0,0,0,36,7.64Z"/><path class="cls-51" d="M36.22,7.71v0h.08Z"/><path class="cls-51" d="M36,7.63H36a5.12,5.12,0,0,0,.41-.54,1,1,0,0,1,0-.1.62.62,0,0,0,0-.53.61.61,0,0,0-.2-.28,2.43,2.43,0,0,0-.25.2C36.58,6.66,36,7.22,36,7.63Z"/><path class="cls-51" d="M36.27,6.19c-.18-.14-.41-.11-.67.08a1.53,1.53,0,0,1,.42.12A2.43,2.43,0,0,1,36.27,6.19Z"/><path class="cls-51" d="M36.48,7a1,1,0,0,0,0,.1A1,1,0,0,1,36.48,7Z"/><path class="cls-51" d="M36,7.73,36,7.64H36A.31.31,0,0,0,36,7.73Z"/><path class="cls-52" d="M28.21,12.68c-.45,1.25.48.21.63.41a.71.71,0,0,1,.16-.87H29a1.12,1.12,0,0,1-.53-.85,1,1,0,0,1-.28-.09A2.11,2.11,0,0,1,28.21,12.68Z"/><path class="cls-52" d="M28.42,11.37a1.12,1.12,0,0,0,.53.85H29l.15-.11-.52-.74h0A1.47,1.47,0,0,1,28.42,11.37Z"/><path class="cls-52" d="M28.14,11.28a1,1,0,0,0,.28.09s0-.07,0-.11l0-.15-.58-.81h0C27.93,10.62,28.05,11,28.14,11.28Z"/><path class="cls-52" d="M28.42,11.37a1.47,1.47,0,0,0,.21,0h0l-.19-.26,0,.15S28.42,11.33,28.42,11.37Z"/><path class="cls-52" d="M27.85,12.73c-.26,1.45.68.54,1.11.63a1.59,1.59,0,0,1-.12-.27c-.15-.2-1.08.84-.63-.41a2.11,2.11,0,0,0-.07-1.4.88.88,0,0,1-.26-.31A8,8,0,0,1,27.85,12.73Z"/><path class="cls-52" d="M28.14,11.28c-.09-.33-.21-.66-.28-1h0c0,.22,0,.45,0,.67A.88.88,0,0,0,28.14,11.28Z"/><path class="cls-52" d="M28.84,13.09v0a.51.51,0,0,1,.13.12l.15-1H29A.71.71,0,0,0,28.84,13.09Z"/><path class="cls-52" d="M29.13,12.22l0-.11-.15.11Z"/><path class="cls-52" d="M28.85,13.11v0a1.59,1.59,0,0,0,.12.27h0l0-.13A.51.51,0,0,0,28.85,13.11Z"/><path class="cls-51" d="M34,7.67a6.27,6.27,0,0,0-2.29,2.08A13.29,13.29,0,0,0,34,7.67Z"/><path class="cls-51" d="M33.62,8.37a10.45,10.45,0,0,0-1.25,1.15A3,3,0,0,0,33.62,8.37Z"/><path class="cls-51" d="M32.37,9.52a10.45,10.45,0,0,1,1.25-1.15,4.66,4.66,0,0,0,.38-.7,13.29,13.29,0,0,1-2.29,2.08h0A2.71,2.71,0,0,0,32.37,9.52Z"/><path class="cls-53" d="M30.73,6.68c-.74.13-.17.5.13.82A2,2,0,0,1,30.73,6.68Z"/><path class="cls-53" d="M30.86,7.5c-.3-.32-.87-.69-.13-.82a.85.85,0,0,1,.15-.32c-.6-.17-1.47-.51-1.7.14s.77.74,1.25,1l.45.34A1,1,0,0,0,30.86,7.5Z"/><path class="cls-53" d="M30.86,7.5a.76.76,0,0,1,.14.21s0,.06,0,.09c.5-.39.12-.77-.06-1.16l-.23,0A2,2,0,0,0,30.86,7.5Z"/><path class="cls-53" d="M31,7.8s0-.06,0-.09a.76.76,0,0,0-.14-.21,1,1,0,0,1,0,.39h0Z"/><path class="cls-53" d="M31,6.64a1,1,0,0,1-.08-.28.85.85,0,0,0-.15.32Z"/></g></g></svg>