<svg xmlns="http://www.w3.org/2000/svg" viewBox="0 0 91.09 35.43"><defs><style>.cls-1{fill:none;}.cls-2{fill:#055092;}.cls-3{fill:#065092;}.cls-4{fill:#075092;}.cls-5{fill:#075093;}.cls-6{fill:#134f88;}.cls-7{fill:#055191;}.cls-8{fill:#055193;}.cls-9{fill:#155087;}.cls-10{fill:#155086;}.cls-11{fill:#115088;}.cls-12{fill:#07508f;}.cls-13{fill:#155088;}.cls-14{fill:#135088;}.cls-15{fill:#1a5084;}.cls-16{fill:#1b4f80;}.cls-17{fill:#164f83;}.cls-18{fill:#1b4e80;}.cls-19{fill:#184f85;}.cls-20{fill:#38608c;}.cls-21{fill:#24527e;}.cls-22{fill:#185086;}.cls-23{fill:#1d4f82;}.cls-24{fill:#1a4e7e;}.cls-25{fill:#1a4f81;}.cls-26{fill:#1a5088;}.cls-27{fill:#1d4f80;}.cls-28{fill:#1a4f82;}.cls-29{fill:#234f80;}.cls-30{fill:#174f86;}.cls-31{fill:#165087;}.cls-32{fill:#18518a;}.cls-33{fill:#275a8d;}.cls-34{fill:#255683;}.cls-35{fill:#25568d;}.cls-36{fill:#1b5289;}.cls-37{fill:#204f7f;}.cls-38{fill:#195088;}.cls-39{fill:#1c518d;}.cls-40{fill:#2d5174;}.cls-41{fill:#28537e;}.cls-42{fill:#3b5d7f;}.cls-43{fill:#1d5485;}.cls-44{fill:#164f7e;}.cls-45{fill:#245387;}.cls-46{fill:#19497a;}.cls-47{fill:#255784;}.cls-48{fill:#305b85;}.cls-49{fill:#2a4d6b;}.cls-50{fill:#26547e;}.cls-51{fill:#2a567d;}.cls-52{fill:#325880;}.cls-53{fill:#325682;}.cls-54{fill:#365a7e;}.cls-55{fill:#295070;}.cls-56{fill:#385e89;}.cls-57{fill:#27537e;}.cls-58{fill:#265184;}.cls-59{fill:#416185;}.cls-60{fill:#516b88;}.cls-61{fill:#1e4f7e;}.cls-62{fill:#375a7b;}</style></defs><g id="Layer_2" data-name="Layer 2"><g id="nestle-logo"><path class="cls-1" d="M82.1,13.51h0Z"/><path class="cls-1" d="M84.35,13.52h-.71A3.38,3.38,0,0,0,84.35,13.52Z"/><path class="cls-2" d="M46.81,17.61c.63,0,.93-.31.93-1q0-4.44,0-8.9c0-.21-.09-.46.1-.65h0V6.88a.55.55,0,0,1,.69-.4c1.48.22,3,0,4.45.08l1.3.09c.6,0,1.19-.09,1.78-.09A24.06,24.06,0,0,1,59,6.64a11.57,11.57,0,0,0,2.2-.08c1.28-.07,2.56.1,3.83.09a5.1,5.1,0,0,0,1-.11c.5-.11.38-.55.41-.9A.56.56,0,0,0,66,5a2,2,0,0,0-.42,0c-5.4,0-10.81,0-16.21,0-1.32,0-2.66-.24-3.94.3a.92.92,0,0,0-.09.61c0,2.25,0,4.49,0,6.74a.68.68,0,0,1-.11.57l-1.63-2.85a.38.38,0,0,1-.39-.2L42,7.85c-.42-.75-.78-1.54-1.27-2.24a1.66,1.66,0,0,0-2-.72,1.15,1.15,0,0,1-.52.06c-.56-.09-.82.12-.84.71,0,.4,0,.81,0,1.21,0,3.19,0,6.38,0,9.57a1.05,1.05,0,0,0,.67,1c.36.2,1.27.07,1.42-.22a2.5,2.5,0,0,0,.23-1.52,21.32,21.32,0,0,1-.08-2.88c0-.88,0-1.76,0-2.63,0-.2-.07-.43.17-.57h0c.07-.15,0-.35.1-.49.18,0,.19.2.25.31q2,3.6,4,7.21a2,2,0,0,0,.73.86A11.62,11.62,0,0,0,46.81,17.61Z"/><path class="cls-3" d="M79.63,13.5H82.1a.83.83,0,0,0,.48-.17.42.42,0,0,1,.35,0,2.27,2.27,0,0,0,.71.19h.71a11.42,11.42,0,0,1,1.17,0,.53.53,0,0,0,.57-.56A2.77,2.77,0,0,0,86,12a.88.88,0,0,1,.06-.8h0c0-.1,0-.21-.06-.31C84.77,7.33,80.39,7.34,78.51,9a5.35,5.35,0,0,0-.63,7.16,5.05,5.05,0,0,0,6.65,1A3.16,3.16,0,0,0,86,15.24c.08-.28,0-.63-.25-.63-.85,0-1.73-.36-2.48.52a2.25,2.25,0,0,1-3.77-.91c-.13-.4-.08-.55.39-.55,1.75,0,3.51,0,5.26,0a1.27,1.27,0,0,0,.67-.07H79.63Zm-.13-2.21a2.26,2.26,0,0,1,2.22-1.37,2.22,2.22,0,0,1,2,1.51c.07.28,0,.39-.28.38H81.61c-.58,0-1.15,0-1.73,0S79.38,11.64,79.5,11.29Z"/><path class="cls-4" d="M51,8.91a3.88,3.88,0,0,0-1.85,2.92,3,3,0,0,1-.18.7.9.9,0,0,0,0,.83c.25.51.13,1.14.47,1.64s.37.82.65,1.18a1.39,1.39,0,0,0,.86.61c.39.06.57.48,1,.6A5.39,5.39,0,0,0,56,17.14a3.92,3.92,0,0,0,1.68-1.83c.2-.33.06-.54-.33-.54H55.54c-.11,0-.14.13-.18.22a.49.49,0,0,1-.31.74,3.57,3.57,0,0,1-3.26-.19c-.26-.15-.36-.58-.52-.88-.08-.14-.14-.29-.23-.42-.3-.45-.3-.46.25-.52h0l.57,0H57.4c.59,0,.83-.22.87-.75a4.73,4.73,0,0,0-6.74-4.59C51.52,8.69,51.18,8.79,51,8.91Zm1.93.77a2.9,2.9,0,0,1,2.89,1.39,1.19,1.19,0,0,1,0,.72c0,.21-.21.43-.39.06l-3.61,0c-.19,0-.44.11-.52-.19h0c-.42,0-.2-.29-.15-.37C51.58,10.55,52,9.86,52.91,9.68Z"/><path class="cls-5" d="M66.14,17a2.68,2.68,0,0,0-.45-4.49A6.6,6.6,0,0,0,64.35,12c-.8-.21-1.6-.42-2.39-.65a.66.66,0,0,1-.56-.62.8.8,0,0,1,.53-.77,1.77,1.77,0,0,1,.6-.15,4.77,4.77,0,0,1,1.31.11.79.79,0,0,1,.84.39.71.71,0,0,0,.93.37.57.57,0,0,1,.26,0c.74.1.82,0,.7-.7a1.49,1.49,0,0,1-.06-.46h0a1.87,1.87,0,0,0-.84-.85,5.59,5.59,0,0,0-5.21-.24A2.54,2.54,0,0,0,58.85,11a2.49,2.49,0,0,0,1.73,2.29,10.07,10.07,0,0,0,1.25.38c.74.21,1.5.37,2.23.63a.69.69,0,0,1,.2,1.27,2.45,2.45,0,0,1-3.07-.4,1.1,1.1,0,0,0-1.2-.6,4.57,4.57,0,0,1-.74,0c-.47,0-.62.22-.61.65a2,2,0,0,0,.59,1.31A5.71,5.71,0,0,0,66.14,17Z"/><path class="cls-6" d="M33.16,17.56a50.09,50.09,0,0,0-4.31-8.12,20.84,20.84,0,0,0-4.34-5.32A15.87,15.87,0,0,1,22,1.62,4.9,4.9,0,0,0,20.68.46a2.73,2.73,0,0,0-4,1.17,7.59,7.59,0,0,1-.58,1.18c-.17.26-.47.58-.42.81s.56,0,.82.22c0,.3-.31.49-.31.8.18.1.32,0,.47,0,1.8-.36,2.19-.07,2.4,1.74a7,7,0,0,0,1.64,4.24c.19-.12.39.59.58,0h0a8,8,0,0,1-1.36-3.14c-.12-.73-.2-1.46-.33-2.19A1.39,1.39,0,0,0,18,3.93c-.29,0-.58,0-.87,0-.05-.28.27-.41.21-.66-.61-.11-.6-.1-.31-.68a2.86,2.86,0,0,0,.2-.48,2,2,0,0,1,3.25-1,6.89,6.89,0,0,1,1.26,1.27A8.17,8.17,0,0,0,23.27,4a11.85,11.85,0,0,1,2.25,2.05A47.81,47.81,0,0,1,31.9,16.45a13.23,13.23,0,0,1,.89,2.24,41.85,41.85,0,0,1-6.85-5.47,24.49,24.49,0,0,1-4.75-7.28.67.67,0,0,0,0,.64A12.48,12.48,0,0,0,23.27,11a31.62,31.62,0,0,0,6.61,6.51c.22.16.48.28.58.59.36,1.08.75,2.15,1.12,3.23.06.18.21.46-.07.54s-.68.16-.83-.22A9.71,9.71,0,0,1,30,19.94c-.4-.12-.11.25-.23.33h0a7.6,7.6,0,0,0,.29,1.48c0,.3-.35.91-.64.91s-.28-.39-.34-.6c-.3-1.13-.49-2.29-.86-3.4a2.23,2.23,0,0,1-.19,1.05c.2,1.14.38,2.28.6,3.42.12.62.65.8,1.08.31a2.21,2.21,0,0,1,2-.82c.5.05.7-.25.6-.74a4.62,4.62,0,0,0-.19-.6c-.31-.88-.63-1.77-1-2.8l.55.37a6,6,0,0,0,1.33.76c.48.17.61.06.56-.44A6.07,6.07,0,0,0,33.16,17.56Z"/><path class="cls-7" d="M72.79,16.14c-.08-.37-.46-.36-.78-.38a1.25,1.25,0,0,1-1.29-1.27c0-1.35,0-2.7,0-4.05,0-.28.1-.38.37-.37h1.26a.51.51,0,0,0,.56-.51c0-.21,0-.42,0-.63,0-.45-.2-.69-.67-.68s-.73,0-1.1,0-.45-.13-.44-.46c0-.51,0-1,0-1.53,0-1.56,0-1.6-1.59-1.59-.7,0-1,.24-1,1s0,1.44,0,2.16c0,.32-.06.5-.43.46a.51.51,0,0,0-.61.39,4.18,4.18,0,0,0,0,.79c0,.43.19.67.64.63s.43.16.43.47c0,.74,0,1.48,0,2.22h0v2.1a2.68,2.68,0,0,0,.5,1.58,3.54,3.54,0,0,0,3.71,1.28.51.51,0,0,0,.31-.18A2,2,0,0,0,72.79,16.14Z"/><path class="cls-8" d="M74.42,17.74h.42c1,0,1.2-.19,1.2-1.2,0-3.42,0-6.84,0-10.26,0-1.58,0-1.62-1.63-1.6-.74,0-1,.23-1,1V16.77C73.44,17.52,73.66,17.73,74.42,17.74Z"/><path class="cls-9" d="M2.47,17.69c1-.4,2-.81,3-1.24a2,2,0,0,1,1.77.06,5.34,5.34,0,0,1,1.58,1.12c.21.23.36.13.53,0s.06-.34-.08-.46a4.15,4.15,0,0,0-.6-.51c-.93-.64-1.85-1.32-3.09-.89a.53.53,0,0,1-.41,0A4.21,4.21,0,0,1,3.74,14a.32.32,0,0,1,0-.35c.13-.13.22,0,.32.07a6.58,6.58,0,0,0,.72.32c.3.09.78.38.9.1.21-.48-.37-.51-.67-.67a3.52,3.52,0,0,1-1.68-1.46c-.08-.15-.15-.36,0-.49s.28.07.41.14A2.56,2.56,0,0,0,6,12.14a3.37,3.37,0,0,1,2.61.08l.83.32c.22.09.44.08.53-.16s-.14-.28-.29-.35a9.66,9.66,0,0,0-1.8-.72,2.21,2.21,0,0,0-1.6,0,2.3,2.3,0,0,1-2.2-.2c-.3-.16-.7-.33-.65-.75s.47-.43.78-.54A6.59,6.59,0,0,1,5.8,9.52c.28,0,.36-.2.4-.41S6.09,9,6,9a6.5,6.5,0,0,0-3,.75.73.73,0,0,0-.41,1,.83.83,0,0,1,0,.56,1.39,1.39,0,0,0,.28,1.34.94.94,0,0,1,.21.87,1.89,1.89,0,0,0,.45,1.62,5.27,5.27,0,0,0,.67.74c.34.31.21.42-.14.56-.62.23-1.23.51-1.85.76A1.9,1.9,0,0,0,.76,19.27a.75.75,0,0,0,0,.26c0,.2-.15.55.26.57s.48-.28.46-.62c0-.1,0-.21,0-.31A1.33,1.33,0,0,1,2.47,17.69Z"/><path class="cls-10" d="M2.17,4a1.43,1.43,0,0,0,.61.29.84.84,0,0,1,.64.51l-.3.05c-.72.09-1.38.26-1.67,1,0,.07-.11.13-.18.18a1.34,1.34,0,0,0,.41,2.33A4.28,4.28,0,0,0,4.4,8.06a2.47,2.47,0,0,1,.73-.35A1.27,1.27,0,0,0,6,7c0-.08.06-.18,0-.24s-.16,0-.22.06A1.27,1.27,0,0,1,5,7.17a1.34,1.34,0,0,0-.93.4.79.79,0,0,1-.88.16.72.72,0,0,0-.64,0,.69.69,0,0,1-1-.29.71.71,0,0,1,.13-1A1,1,0,0,0,2,6.15a1,1,0,0,1,1-.71c.6,0,1-.38,1.53-.49.08,0,.18,0,.19-.15s-.1-.16-.2-.19a1.12,1.12,0,0,1-.79-.48A1,1,0,0,0,3,3.69a1.28,1.28,0,0,1-1-.89,2.05,2.05,0,0,0-.44-.87.62.62,0,0,1-.06-.78C1.73.88,2,.62,2.3.76a14.08,14.08,0,0,0,1.56.36,1.31,1.31,0,0,1,.77.74c.07.16.11.32.32.39a1.18,1.18,0,0,1,.87,1c0,.1,0,.23.16.24s.14-.13.18-.22c.43-.84.46-2,1.75-2.18C8,1.1,8,1,8.06,1a.73.73,0,0,1,1-.08.71.71,0,0,1,.16,1,.55.55,0,0,0-.13.44,1,1,0,0,1-.56,1.07.49.49,0,0,0-.27.24,1.4,1.4,0,0,1-.86.93c-.08,0-.17.09-.14.19s.14.1.22.1a1.63,1.63,0,0,0,1.19-.65A4.21,4.21,0,0,0,9.9,2.1,1.76,1.76,0,0,0,9.7.49,1.28,1.28,0,0,0,8.07.18c-.8.55-2,.74-2,2A2.72,2.72,0,0,1,4.79,1,1.34,1.34,0,0,0,3.65.42,1.34,1.34,0,0,1,2.86.2,1.28,1.28,0,0,0,1.38.3,1.14,1.14,0,0,0,.81,1.65,6.21,6.21,0,0,0,2.17,4Z"/><path class="cls-11" d="M24.82,14.58c-.26-.18-.33,0-.42.19a8.55,8.55,0,0,1-1.17,1.74A6.14,6.14,0,0,1,18,19a13.39,13.39,0,0,0-5.11.45A2.33,2.33,0,0,1,11,19c-.25-.16-.32-.31,0-.51s.4-.22.19-.49-.41,0-.56.08c-.74.54-1.47,1.08-2.2,1.64C8.12,19.93,8,20,8,19.6a2.2,2.2,0,0,0-.21-1A1.24,1.24,0,0,0,6,18.09l.71.33a1.38,1.38,0,0,1,.75,1.44,1.29,1.29,0,0,1-.84,1.22,3.16,3.16,0,0,1-1.17.26.34.34,0,0,0-.36.37c0,.28.21.22.38.22a3.23,3.23,0,0,0,2.09-.75c.72-.57,1.47-1.13,2.19-1.72.23-.18.38-.22.62,0a3.3,3.3,0,0,0,1.78.72,2.19,2.19,0,0,0,1-.05,16,16,0,0,1,5.12-.43A7.61,7.61,0,0,0,25,15.08C25.12,14.81,25,14.71,24.82,14.58Z"/><path class="cls-12" d="M78.18,6.7h5c.5,0,1,0,1.52,0,1.55.06,1.4-.21,1.4-1.51,0-.48-.25-.69-.75-.66l-1.52.14-5.75.58c-.6.07-.66.21-.65.9S77.79,6.7,78.18,6.7Z"/><path class="cls-13" d="M22.67,13.91c.11-.06.39-.09.25-.3a.39.39,0,0,0-.54-.17c-.14.08-.28.15-.41.24a7,7,0,0,0-1.92,2A3.27,3.27,0,0,1,18,17.25c-.38.1-.57.08-.76-.33a1.73,1.73,0,0,0-2.55-1,17.43,17.43,0,0,0-2.19,1c-.15.08-.47.1-.29.43s.38.16.58.05A15,15,0,0,1,15,16.43a1,1,0,0,1,1.38.42c.14.19.36.41.26.64s-.37.14-.57.17-.56.06-.84.08l-1,0a.35.35,0,0,0-.36.38c0,.25.22.15.36.17s.32,0,.62,0a11.4,11.4,0,0,0,4.71-1,.64.64,0,0,1,.45-.07,3.14,3.14,0,0,0,2.34-.76.65.65,0,0,0,.18-.3.3.3,0,0,0,0-.35c-.13-.12-.23,0-.31.1a3,3,0,0,1-1.5.71c-.12,0-.26.07-.34-.07s0-.2.09-.28A7.15,7.15,0,0,1,22.67,13.91Z"/><path class="cls-14" d="M6.75,10c-.06.13-.17.28-.09.4s.3.05.45.06.32-.23.41-.41A10.33,10.33,0,0,1,9,7.58a8.18,8.18,0,0,0,2.12-3.74A1.24,1.24,0,0,1,12.76,3,4.8,4.8,0,0,0,14,3.3c-.14.28-.39.52,0,.75.21.12,0,.22-.12.29a2,2,0,0,0-.8,1c0,.08-.08.17,0,.23s.16,0,.22-.07a2.92,2.92,0,0,1,1.52-1c.26-.08.29-.22.06-.33-.65-.32-.51-.7-.13-1.13A2.74,2.74,0,0,0,15,2.68a5.39,5.39,0,0,1-2.52-.42.94.94,0,0,0-.47,0,2.07,2.07,0,0,0-1.76,1.84A4.62,4.62,0,0,1,9,6.4,11.18,11.18,0,0,0,6.75,10Z"/><path class="cls-15" d="M5,31.21c-.31-.33-1-.07-1.46-.11H3.25c-.19,0-.36,0-.36.26s.21.22.38.24c.39,0,.9-.18,1.16.11s.07.77.07,1.17c0,.9,0,.9-.91,1C2,34,1.11,33.43.78,32a4,4,0,0,1,.07-2.18,2,2,0,0,1,1.74-1.53,1.46,1.46,0,0,1,1.76,1.05c.08.26.32.18.5.14s.11-.22.08-.35a1.68,1.68,0,0,0-.85-1.08A2.7,2.7,0,0,0,.6,29a4,4,0,0,0-.09,4.07A2.34,2.34,0,0,0,2,34.27a4.55,4.55,0,0,0,2.14,0c.88-.18.88-.18.88-1.05v-.67C5,32.15,5.26,31.52,5,31.21Z"/><path class="cls-16" d="M53.06,32.59h0c0-.38,0-.77,0-1.16,0-.2,0-.33-.29-.33H51.15c-.17,0-.26.07-.26.25s.1.24.26.25h1c.24,0,.36.06.35.32,0,.49,0,1,0,1.48a.33.33,0,0,1-.14.31,2.66,2.66,0,0,1-3.27-.88,3.72,3.72,0,0,1-.23-3,2,2,0,0,1,1.77-1.55,1.43,1.43,0,0,1,1.7,1.05c.08.25.32.2.5.15s.11-.27.08-.4a1.6,1.6,0,0,0-.85-1,2.7,2.7,0,0,0-3.5,1,4.12,4.12,0,0,0-.17,3.8,2.21,2.21,0,0,0,.86,1,3.62,3.62,0,0,0,3,.36c1-.2.84,0,.82-1Z"/><path class="cls-17" d="M13.94,6A1.86,1.86,0,0,0,12,6.62a2.75,2.75,0,0,0-.49,1.64A2.2,2.2,0,0,1,11,9.51c-.37.47-.7,1-1,1.46-.11.16-.25.32,0,.46s.39.24.56-.06a5.33,5.33,0,0,1,.48-.69,4.77,4.77,0,0,0,1.21-2.9,1.33,1.33,0,0,1,1.65-1.21,2.2,2.2,0,0,0,1.05,0c.13.24-.29.52.13.66s.29.22.07.42a2,2,0,0,0-.36.45,3.55,3.55,0,0,0-.38,3.26c.09-.16.14-.2.14-.25a4.34,4.34,0,0,1,1.66-3.64c.23-.18,0-.27-.13-.31-.55-.15-.7-.41-.37-.93.2-.32,0-.39-.3-.31A3.21,3.21,0,0,1,13.94,6Z"/><path class="cls-18" d="M20.48,31.37V28.32c0-.13.05-.3-.14-.35A.29.29,0,0,0,20,28c-.1.12-.06.27-.06.4v2.11a1.88,1.88,0,0,0-3.35.92A3,3,0,0,0,16.66,33a1.82,1.82,0,0,0,2.07,1.44,1.79,1.79,0,0,0,1.14-.64c.06.09.09.12.09.14,0,.25,0,.48.34.44s.19-.27.19-.45C20.48,33.05,20.48,32.21,20.48,31.37Zm-.7,1.71a1.18,1.18,0,0,1-1.17.89,1.29,1.29,0,0,1-1.29-.8,2.82,2.82,0,0,1-.18-1.24,2.48,2.48,0,0,1,.13-.78,1.25,1.25,0,0,1,1.2-.93,1.3,1.3,0,0,1,1.26.86A2.66,2.66,0,0,1,19.78,33.08Z"/><path class="cls-19" d="M68.49,28.39c0-.19.08-.45-.28-.44s-.27.25-.27.45c0,.66,0,1.32,0,2.09-1-.81-1.88-.9-2.6-.33a2.77,2.77,0,0,0,0,3.9,1.88,1.88,0,0,0,2.54-.32c.14.26,0,.64.38.6s.22-.38.22-.58C68.5,32,68.49,30.18,68.49,28.39Zm-.71,4.71a1.19,1.19,0,0,1-1.24.87,1.31,1.31,0,0,1-1.29-1,2.28,2.28,0,0,1-.14-.84A2.46,2.46,0,0,1,65.33,31a1.18,1.18,0,0,1,1.09-.77,1.27,1.27,0,0,1,1.22.67A2.73,2.73,0,0,1,67.78,33.1Z"/><path class="cls-20" d="M46.74,4.86H65.58a1,1,0,0,1,.89,1.53.51.51,0,0,1-.48.26,24.47,24.47,0,0,1-2.57,0c-1.12,0-2.24,0-3.36,0-2,0-3.93,0-5.89,0s-3.71,0-5.56-.06c-.26,0-.58-.06-.75.25.17-.14.37-.09.56-.09H66.11a.47.47,0,0,0,.44-.25,2.07,2.07,0,0,0,0-1.43c-.14-.38-.56-.3-.88-.3H48.1c-.65,0-1.3,0-2,0-.33,0-.63.08-.74.46h0A2.09,2.09,0,0,1,46.74,4.86Z"/><path class="cls-20" d="M49.35,5c5.4,0,10.81,0,16.21,0A2,2,0,0,1,66,5a.56.56,0,0,1,.52.66c0,.35.09.79-.41.9a5.1,5.1,0,0,1-1,.11c-1.27,0-2.55-.16-3.83-.09a11.57,11.57,0,0,1-2.2.08,24.06,24.06,0,0,0-2.94-.08c-.59,0-1.18.13-1.78.09L53,6.56c-1.48-.08-3,.14-4.45-.08a.55.55,0,0,0-.69.4c.17-.31.49-.26.75-.25,1.85.11,3.71,0,5.56.06s3.92,0,5.89,0c1.12,0,2.24-.06,3.36,0a24.47,24.47,0,0,0,2.57,0,.51.51,0,0,0,.48-.26,1,1,0,0,0-.89-1.53H46.74a2.09,2.09,0,0,0-1.33.42h0C46.69,4.74,48,5,49.35,5Z"/><path class="cls-21" d="M39.58,11.35c.13,1.58-.08,3.16.15,4.73a2.71,2.71,0,0,1,0,.41c0,.47,0,1-.57,1.06a1.64,1.64,0,0,1-1.64-.26.9.9,0,0,1-.28-.65q0-5.54,0-11a.72.72,0,0,1,.85-.82,4.68,4.68,0,0,0,.84-.06,1.71,1.71,0,0,1,2,1c.78,1.26,1.44,2.6,2.17,3.89.15.26.24.56.52.72-.9-1.65-1.81-3.29-2.7-4.93a1.51,1.51,0,0,0-1.36-.84H38.29c-.94,0-1.2.24-1.2,1.17,0,3.45,0,6.91,0,10.36,0,1.59.07,1.66,1.66,1.64.77,0,1-.29,1-1.06,0-1.6,0-3.19,0-4.79a3.55,3.55,0,0,1-.06-1.08,2.66,2.66,0,0,0,0-1.19h0A7.11,7.11,0,0,0,39.58,11.35Z"/><path class="cls-21" d="M39.52,10.2c0,.87,0,1.75,0,2.63a21.32,21.32,0,0,0,.08,2.88,2.5,2.5,0,0,1-.23,1.52c-.15.29-1.06.42-1.42.22a1.05,1.05,0,0,1-.67-1c0-3.19,0-6.38,0-9.57,0-.4,0-.81,0-1.21,0-.59.28-.8.84-.71a1.15,1.15,0,0,0,.52-.06,1.66,1.66,0,0,1,2,.72c.49.7.85,1.49,1.27,2.24l1.25,2.3a.38.38,0,0,0,.39.2c-.28-.16-.37-.46-.52-.72C42.36,8.34,41.7,7,40.92,5.74a1.71,1.71,0,0,0-2-1,4.68,4.68,0,0,1-.84.06.72.72,0,0,0-.85.82q0,5.52,0,11.05a.9.9,0,0,0,.28.65,1.64,1.64,0,0,0,1.64.26c.52-.11.57-.59.57-1.06a2.71,2.71,0,0,0,0-.41c-.23-1.57,0-3.15-.15-4.73a7.11,7.11,0,0,1,.11-1.72h0C39.45,9.77,39.52,10,39.52,10.2Z"/><path class="cls-22" d="M26.61,5c.2.23.29,0,.4-.1a8.14,8.14,0,0,0,.87-1.37c.05-.09.08-.19.22-.19s.13.12.15.21c.12.57.48.85,1.2.88l.43-.06a27.3,27.3,0,0,0,2.66-.83c.37-.11.53-.33.39-.65s-.4,0-.58,0c-.8.27-1.58.59-2.4.78s-1.22-.09-1-1a6.4,6.4,0,0,1,.51-1.49c.19-.38,0-.41-.29-.4a.44.44,0,0,0-.4.28,31.6,31.6,0,0,1-2.26,3.42C26.28,4.69,26.47,4.8,26.61,5Z"/><path class="cls-23" d="M31.77,29.83a2,2,0,0,0-2.13.71,2.88,2.88,0,0,0,.05,3.17,1.74,1.74,0,0,0,1.14.68,2.09,2.09,0,0,0,2.54-2.29,3,3,0,0,0-.12-.94A1.8,1.8,0,0,0,31.77,29.83Zm.45,3.82a1.34,1.34,0,0,1-1.5.24,1.67,1.67,0,0,1-.93-1.61c0-1.38.58-2.07,1.57-2.05a1.42,1.42,0,0,1,1.3,1A2.43,2.43,0,0,1,32.22,33.65Z"/><path class="cls-24" d="M8.8,29.81a2,2,0,0,0-2.2,1.07,2.84,2.84,0,0,0,.36,3,1.72,1.72,0,0,0,1,.55,2.1,2.1,0,0,0,2.58-2.26A2,2,0,0,0,8.8,29.81Zm.9,3.4a1.33,1.33,0,0,1-1.4.8A1.42,1.42,0,0,1,7.07,33,2,2,0,0,1,7,32.06,1.87,1.87,0,0,1,7.16,31a1.37,1.37,0,0,1,1.28-.76A1.28,1.28,0,0,1,9.69,31,2.41,2.41,0,0,1,9.7,33.21Z"/><path class="cls-25" d="M15,30.3A2.27,2.27,0,0,0,12.55,30a2.2,2.2,0,0,0-1.11,2.17,2.12,2.12,0,0,0,1.22,2.1c1.53.65,3-.4,3-2.24A2.26,2.26,0,0,0,15,30.3ZM13.52,34h-.16A1.84,1.84,0,0,1,12,31.78c.15-1.1.85-1.69,1.79-1.53a1.7,1.7,0,0,1,1.25,1.88C15,33.27,14.41,34,13.52,34Z"/><path class="cls-26" d="M13.19,15.77a.32.32,0,0,0,.19-.46c-.11-.29-.28-.1-.43,0s-.47.22-.72.31a2.47,2.47,0,0,1-3-.64,6.18,6.18,0,0,1-.73-1.21c-.61-1.19-1.18-1.4-2.42-.88-.15.07-.37.1-.3.35s.27.23.48.17l.3-.08c.66-.16.91,0,1.24.56s.24.52-.33.58c-.26,0-.52,0-.78.05s-.4-.08-.39.2.17.33.39.33A11.38,11.38,0,0,0,8,15a.57.57,0,0,1,.62.24,3,3,0,0,0,2.44,1.16A5.24,5.24,0,0,0,13.19,15.77Z"/><path class="cls-27" d="M36.8,29.82a2,2,0,0,0-2.25,1.05A2.84,2.84,0,0,0,35,33.92a1.7,1.7,0,0,0,.92.47,2.11,2.11,0,0,0,2.59-2.3A2,2,0,0,0,36.8,29.82ZM36.58,34a1.42,1.42,0,0,1-1.53-.93,2.28,2.28,0,0,1-.18-.95c0-1.22.61-1.92,1.57-1.9h.16c.8.1,1.31.84,1.3,1.88A1.74,1.74,0,0,1,36.58,34Z"/><path class="cls-28" d="M61.54,29.8a2,2,0,0,0-2.1,2.29c0,1.47.81,2.35,2.11,2.35A2.14,2.14,0,0,0,63.63,32,2,2,0,0,0,61.54,29.8Zm1.12,3.64a1.37,1.37,0,0,1-2.32-.11,2.44,2.44,0,0,1-.15-2.17,1.37,1.37,0,0,1,1.38-.93,1.41,1.41,0,0,1,1.34,1,2.13,2.13,0,0,1,.13.83A2.29,2.29,0,0,1,62.66,33.44Z"/><path class="cls-25" d="M56.93,29.83a2,2,0,0,0-2.32,1A2.84,2.84,0,0,0,55,33.94a1.78,1.78,0,0,0,.93.46,2.11,2.11,0,0,0,2.56-2.3A2.06,2.06,0,0,0,56.93,29.83Zm.74,3.43A1.3,1.3,0,0,1,56.5,34a1.35,1.35,0,0,1-1.29-.74,2.31,2.31,0,0,1-.29-1.21c0-1.17.62-1.87,1.61-1.83a1.28,1.28,0,0,1,1.2.79A2.47,2.47,0,0,1,57.67,33.26Z"/><path class="cls-29" d="M84.69,29.85a1.93,1.93,0,0,0-2.4,1.36,3.09,3.09,0,0,0,.09,2.16,1.72,1.72,0,0,0,1.78,1.06,1.62,1.62,0,0,0,1.69-1.07c.05-.13.2-.31,0-.41s-.34,0-.45.23a1.22,1.22,0,0,1-1.49.83,1.58,1.58,0,0,1-1.17-1.46c0-.29.09-.37.36-.36.42,0,.85,0,1.27,0h1.31c.14,0,.28,0,.33-.18A2,2,0,0,0,84.69,29.85Zm.33,2a8.81,8.81,0,0,0-.89,0h0c-.37,0-.74,0-1.1,0-.2,0-.29-.07-.28-.28a1.49,1.49,0,0,1,1.32-1.29,1.28,1.28,0,0,1,1.36,1.12C85.49,31.68,85.39,31.84,85,31.81Z"/><path class="cls-30" d="M28.29,28c-.92,0-1.83,0-2.74,0-.34,0-.46.1-.45.45,0,.93,0,1.86,0,2.79s0,1.75,0,2.63c0,.2-.15.53.27.54s.3-.3.3-.52c0-.67,0-1.34,0-2,0-.44.09-.63.58-.6.64,0,1.29,0,1.94,0,.17,0,.43.09.42-.23s-.26-.23-.44-.24c-.66,0-1.33,0-2,0-.4,0-.52-.14-.49-.52a11.21,11.21,0,0,0,0-1.42c0-.33.11-.42.43-.42.71,0,1.43,0,2.15,0,.19,0,.47.09.46-.25S28.46,28,28.29,28Z"/><path class="cls-31" d="M21.29,12.54c-.22-.18-.32-.06-.46.11-.49.58-1,1.16-1.48,1.71-.26.29-.54.72-1,.58s-.34-.65-.35-1-.15-.44-.49-.39a9.92,9.92,0,0,0-3.22,1.1c-.23.12-.41.25-.26.52s.37,0,.51-.06a7.94,7.94,0,0,1,2.53-.84c.3-.05.25.21.29.4.23,1.1,1,1.37,1.83.67A4.38,4.38,0,0,0,19.6,15a20.86,20.86,0,0,0,1.65-2C21.35,12.85,21.51,12.73,21.29,12.54Z"/><path class="cls-32" d="M33.22,4.22a47.52,47.52,0,0,0-4.85,2.13c-.15.08-.46.09-.28.42a.39.39,0,0,0,.59.22,5,5,0,0,1,2.25-.4,8.44,8.44,0,0,0,1.67-.16c.25,0,.41-.14.35-.41s-.26-.17-.43-.14c-.35.06-.69.13-1,.16-.16,0-.41.11-.47-.08s.22-.22.36-.28c.68-.29,1.36-.56,2.05-.82.33-.12.29-.39.23-.61S33.36,4.16,33.22,4.22Z"/><path class="cls-33" d="M76.15,33.86c-.76,0-1.51,0-2.27,0-.43,0-.57-.1-.57-.55,0-1.63,0-3.27,0-4.9,0-.21.09-.49-.3-.48s-.28.29-.28.5c0,.91,0,1.82,0,2.74h0c0,.91,0,1.82,0,2.73,0,.35.11.46.45.45h2.95c.19,0,.41,0,.4-.27S76.31,33.86,76.15,33.86Z"/><path class="cls-34" d="M57.9,15.16c.08-.39-.07-.61-.49-.61H56c-.18,0-.36,0-.45.21h0a6.24,6.24,0,0,1,1.88-.09c.36,0,.5.3.3.7A3.69,3.69,0,0,1,56,17.26a5.22,5.22,0,0,1-3.78.34A4.52,4.52,0,0,1,49,14.25a5.43,5.43,0,0,1,.23-3.36,3.7,3.7,0,0,1,1.58-2,3.07,3.07,0,0,0,.72-.52,2.37,2.37,0,0,0-1,.52,5.33,5.33,0,0,0-.86,7.2,5.08,5.08,0,0,0,6.72,1.07A3.1,3.1,0,0,0,57.9,15.16Z"/><path class="cls-34" d="M50.81,8.86a3.7,3.7,0,0,0-1.58,2A5.43,5.43,0,0,0,49,14.25a4.52,4.52,0,0,0,3.19,3.35A5.22,5.22,0,0,0,56,17.26a3.69,3.69,0,0,0,1.75-1.88c.2-.4.06-.69-.3-.7a6.24,6.24,0,0,0-1.88.09H57.3c.39,0,.53.21.33.54A3.92,3.92,0,0,1,56,17.14a5.39,5.39,0,0,1-4.06.25c-.39-.12-.57-.54-1-.6a1.39,1.39,0,0,1-.86-.61c-.28-.36-.4-.8-.65-1.18s-.22-1.13-.47-1.64a.9.9,0,0,1,0-.83,3,3,0,0,0,.18-.7A3.88,3.88,0,0,1,51,8.91c.2-.12.54-.22.55-.57A3.07,3.07,0,0,1,50.81,8.86Z"/><path class="cls-35" d="M81.37,27.9a1.06,1.06,0,0,0-1.39.72,2.58,2.58,0,0,0-.06.73c0,.4-.1.55-.5.5-.15,0-.39-.08-.41.19s.23.26.41.24c.4-.05.53.11.5.5s0,1,0,1.53h0c0,.54,0,1.08,0,1.63,0,.23,0,.42.32.41s.26-.22.26-.41c0-1,0-2,0-3,0-.51.09-.77.65-.67.14,0,.34,0,.34-.21s-.18-.22-.33-.22a2.28,2.28,0,0,0-.37,0c-.16,0-.25,0-.28-.23-.15-.83,0-1.11.84-1.31.11,0,.2,0,.21-.18A.22.22,0,0,0,81.37,27.9Z"/><path class="cls-36" d="M11.08,13.39a7,7,0,0,1,1.66-.9c.12-.06.35-.05.26-.29s-.22-.32-.46-.22l-.44.18a5.4,5.4,0,0,0-1.78,1.19.84.84,0,0,0,.53,1.5,1.72,1.72,0,0,0,.36,0,7.46,7.46,0,0,0,3-1c.1-.05.24-.11.16-.27a.29.29,0,0,0-.33-.2,3,3,0,0,0-.54.2,5.41,5.41,0,0,1-2.15.64c-.24,0-.53.06-.64-.23S10.87,13.55,11.08,13.39Z"/><path class="cls-37" d="M42.72,32.9h0c-.24.57-.53,1.06-1.26,1.07S40,33.38,40,32.31a3.38,3.38,0,0,1,.06-.78,1.35,1.35,0,0,1,2.45-.74c.22,0,.22,0,.11-.4h0a1.76,1.76,0,0,0-3,.66,3.06,3.06,0,0,0,0,2.17,1.78,1.78,0,0,0,3.09.52h0c.07-.24.14-.48.2-.72S42.85,32.83,42.72,32.9Z"/><path class="cls-38" d="M20,11.6l-.25.08a4.57,4.57,0,0,1-2.17.26c-.55-.07-1.11-.11-1.43-.14a3.85,3.85,0,0,0-2,.34c-.13.08-.39.11-.26.36a.33.33,0,0,0,.47.19,5.55,5.55,0,0,1,2.86-.13,4.8,4.8,0,0,0,3-.42c.12-.05.37-.06.26-.3S20.26,11.54,20,11.6Z"/><path class="cls-39" d="M43.33,28.32c0-.17,0-.37-.25-.38s-.3.16-.3.38c0,.59,0,1.19,0,1.79,0,.12.1.36-.2.28h0c.08.13.23.23.15.42a.16.16,0,0,1-.21.1,3.52,3.52,0,0,1,.21,1.9c.18-.08.25,0,.24.24a1,1,0,0,1-.3.69h0a.35.35,0,0,1,.14.32c0,.24.13.3.33.29s.19-.21.19-.35Z"/><path class="cls-39" d="M42.73,32.81s0,.06,0,.09h0c.13-.07.19,0,.15.12s-.13.48-.2.72a1,1,0,0,0,.3-.69C43,32.86,42.91,32.73,42.73,32.81Z"/><path class="cls-39" d="M42.47,30.79l.05.12a.16.16,0,0,0,.21-.1c.08-.19-.07-.29-.15-.42h0C42.69,30.8,42.69,30.8,42.47,30.79Z"/><path class="cls-40" d="M89.26,13.73a1.86,1.86,0,1,0,1.83,1.86A1.84,1.84,0,0,0,89.26,13.73Zm-.06,3.4a1.54,1.54,0,1,1,1.56-1.53A1.58,1.58,0,0,1,89.2,17.13Z"/><path class="cls-41" d="M29.1,14.17a6.36,6.36,0,0,0,1.22.85l.08-.1a.72.72,0,0,0-.14-.2A55.63,55.63,0,0,1,26,10.26c-.09-.11-.17-.35-.35-.23s0,.28.1.4A12.91,12.91,0,0,0,29.1,14.17Z"/><path class="cls-42" d="M90.27,27.88c-.17,0-.22.12-.28.26l-.58,1.34c-.23-.53-.41-1-.59-1.39,0-.12-.12-.23-.27-.2s-.16.16-.16.28c0,.6,0,1.19,0,1.79,0,.1,0,.23.12.25s.17-.12.17-.25V28.87a1.72,1.72,0,0,1,.39.67c.07.15.12.35.34.35s.22-.19.29-.33.2-.46.31-.69h.09c0,.36,0,.72,0,1.08,0,.12,0,.28.17.26s.13-.14.13-.25c0-.6,0-1.19,0-1.79C90.41,28.06,90.42,27.91,90.27,27.88Z"/><path class="cls-43" d="M77.79,29.84c-.31,0-.27.21-.27.4v1.84h0c0,.61,0,1.22,0,1.83,0,.19-.08.45.27.44s.28-.21.28-.41V30.22C78.08,30,78.07,29.84,77.79,29.84Z"/><path class="cls-44" d="M51.11,14.11a2.49,2.49,0,0,0,3,1.77,3.5,3.5,0,0,0,.71-.17.78.78,0,0,0,.58-.72,2.31,2.31,0,0,1-2.57.68,2.15,2.15,0,0,1-1.5-1.95h0C51.2,13.84,51,13.89,51.11,14.11Z"/><path class="cls-44" d="M51,14.24c.09.13.15.28.23.42.16.3.26.73.52.88a3.57,3.57,0,0,0,3.26.19.49.49,0,0,0,.31-.74.78.78,0,0,1-.58.72,3.5,3.5,0,0,1-.71.17,2.49,2.49,0,0,1-3-1.77c-.07-.22.09-.27.18-.39h0C50.74,13.78,50.74,13.79,51,14.24Z"/><path class="cls-20" d="M47.85,7.07h0a1,1,0,0,0-.05.57q0,4.47,0,8.94c0,.84-.24,1.1-1.09,1.09a5.72,5.72,0,0,1-1.93-.15,1.06,1.06,0,0,0,.78.23h1.32c.72,0,1-.3,1-1V11.48Z"/><path class="cls-20" d="M46.7,17.67c.85,0,1.09-.25,1.09-1.09q0-4.47,0-8.94a1,1,0,0,1,.05-.57c-.19.19-.1.44-.1.65q0,4.46,0,8.9c0,.68-.3,1-.93,1a11.62,11.62,0,0,1-2-.09A5.72,5.72,0,0,0,46.7,17.67Z"/><path class="cls-45" d="M6,4.79c-.18.13-.06.27,0,.41l.92,1.71c.07.12.06.39.25.34s.31-.32.4-.54a1.67,1.67,0,0,0-.12-.23A8.73,8.73,0,0,0,6.37,5C6.27,4.85,6.19,4.64,6,4.79Z"/><path class="cls-46" d="M84.35,13.52a3.38,3.38,0,0,1-.71,0H81.91c-.55,0-1.08,0-1.57,0,.24,0,.53,0,.82,0,1.38-.06,2.76,0,4.13,0h.15Z"/><path class="cls-46" d="M86.1,11.19c0,.53.13,1,.12,1.56s-.17.78-.66.8a.44.44,0,0,1,.24.07.58.58,0,0,0,.55-.64A4.19,4.19,0,0,0,86.1,11.19Z"/><path class="cls-46" d="M85.5,13.55h0Z"/><path class="cls-46" d="M85.5,13.55h-.21c-1.37,0-2.75-.06-4.13,0-.29,0-.58,0-.82,0l-.21,0,.21,0c.49,0,1,0,1.57,0H79.63v.12H85.8a.44.44,0,0,0-.24-.07Z"/><path class="cls-46" d="M80.13,13.57l.21,0Z"/><path class="cls-46" d="M83.64,13.51a2.27,2.27,0,0,1-.71-.19.42.42,0,0,0-.35,0,.83.83,0,0,1-.48.17h1.54Z"/><path class="cls-46" d="M86,12a2.77,2.77,0,0,1,0,.95.53.53,0,0,1-.57.56,11.42,11.42,0,0,0-1.17,0l1.09,0h.12c.49,0,.65-.26.66-.8s-.14-1-.12-1.56h0A.88.88,0,0,0,86,12Z"/><path class="cls-47" d="M18.5,9.09c-.76,0-1.53,0-2.3,0-.16,0-.25.21-.24.37s.2.12.32.13h2.16c.11,0,.32.08.31-.16S18.69,9.1,18.5,9.09Z"/><path class="cls-48" d="M45.39,33.57c-.27,0-.37.1-.42.34s-.19.71-.26,1.07c0,.13-.24.34,0,.43s.38-.08.46-.3c.15-.39.29-.79.46-1.17S45.69,33.53,45.39,33.57Z"/><path class="cls-49" d="M86.28,27.89l0,.15c.08,0,.16.07.24.05.52-.1.57.18.55.6s0,.83,0,1.25c0,.12,0,.28.15.28s.15-.17.15-.29c0-.33,0-.66,0-1-.06-.55,0-1,.72-.89,0,0,0-.05,0-.13A12.33,12.33,0,0,0,86.28,27.89Z"/><path class="cls-50" d="M66.7,10.43c0,.26-.14.44-.42.43h-1a.86.86,0,0,1-.64-.41,1.2,1.2,0,0,0-.76-.5,2.05,2.05,0,0,1,.78.74.56.56,0,0,0,.57.3H66c.81,0,1-.31.71-1.08a.81.81,0,0,0-.23-.39h0A2.15,2.15,0,0,1,66.7,10.43Z"/><path class="cls-50" d="M66.57,10c.12.72,0,.8-.7.7a.57.57,0,0,0-.26,0,.71.71,0,0,1-.93-.37.79.79,0,0,0-.84-.39,1.2,1.2,0,0,1,.76.5.86.86,0,0,0,.64.41h1c.28,0,.39-.17.42-.43a2.15,2.15,0,0,0-.19-.91h0A1.49,1.49,0,0,0,66.57,10Z"/><path class="cls-51" d="M2.91,2A10.43,10.43,0,0,0,4.57,3.55c.08.07.16,0,.23,0s.11-.18,0-.28A3.54,3.54,0,0,0,2.91,2Z"/><path class="cls-52" d="M7.11,4c.38-.59.76-1.18,1.13-1.77a.17.17,0,0,0,0-.14C8.18,2,8.1,2,8,2.05A4.55,4.55,0,0,0,6.78,3.7c-.08.18,0,.3.21.33C7,4,7.09,4,7.11,4Z"/><path class="cls-53" d="M2.91,6.71c0,.14.17.08.27,0L5,6.16c.13,0,.23-.11.2-.26S5,5.73,4.88,5.75a4.35,4.35,0,0,0-1.83.76C3,6.56,2.88,6.61,2.91,6.71Z"/><path class="cls-54" d="M21,10.81c-.1-.06-.13-.2-.26-.23a7.53,7.53,0,0,0,1.86,1.7l.11-.12-1.39-1.59C21.36,10.88,21.26,11,21,10.81Z"/><path class="cls-54" d="M20.71,10.58c.13,0,.16.17.26.23.29.17.39.07.32-.24h0C21.1,11.17,20.9,10.46,20.71,10.58Z"/><path class="cls-55" d="M28.26,18.66c-.11-.46-.21-.92-.32-1.38,0-.11,0-.29-.17-.26s-.11.2-.09.31l.39,2.38h0C28.19,19.37,28,19,28.26,18.66Z"/><path class="cls-55" d="M28.07,19.71h0a2.23,2.23,0,0,0,.19-1.05C28,19,28.19,19.37,28.07,19.71Z"/><path class="cls-56" d="M17.94,2.29a.29.29,0,0,0,.36.34c.32-.09.68-.23.7-.6s-.29-.3-.49-.32C18.09,1.71,18,2,17.94,2.29Z"/><path class="cls-57" d="M13,3.84c0-.26-.18-.36-.41-.37a.42.42,0,0,0-.47.45c0,.21.06.34.31.36S12.92,4.12,13,3.84Z"/><path class="cls-58" d="M14.27,7.42c0-.22-.13-.34-.35-.35s-.45.13-.46.47c0,.15,0,.35.25.34A.57.57,0,0,0,14.27,7.42Z"/><path class="cls-59" d="M77.78,27.93c-.25,0-.33.11-.33.35s.1.38.38.38.31-.17.29-.39S78,27.93,77.78,27.93Z"/><path class="cls-60" d="M29.84,19.84c.08-.07.15,0,.2.1a2.79,2.79,0,0,0-.21-.75c0-.08-.07-.18-.18-.15s-.12.13-.09.22a5.14,5.14,0,0,0,.25,1h0C29.77,20.12,29.72,20,29.84,19.84Z"/><path class="cls-60" d="M30,19.94c-.05-.07-.12-.17-.2-.1s-.07.28,0,.43h0C29.93,20.19,29.64,19.82,30,19.94Z"/><path class="cls-61" d="M51.31,11.62a1.43,1.43,0,0,1,.74-1.34,2.4,2.4,0,0,1,3.52.68,1,1,0,0,1,.17.65c0,.17-.08.31-.3.24.18.37.34.15.39-.06a1.19,1.19,0,0,0,0-.72,2.9,2.9,0,0,0-2.89-1.39c-.94.18-1.33.87-1.75,1.57C51.11,11.33,50.89,11.64,51.31,11.62Z"/><path class="cls-61" d="M55.74,11.61a1,1,0,0,0-.17-.65,2.4,2.4,0,0,0-3.52-.68,1.43,1.43,0,0,0-.74,1.34h0c0-.1.07-.2.11-.3a2.18,2.18,0,0,1,2-1.41,2.21,2.21,0,0,1,2.11,1.28c.1.23.27.49-.1.66C55.66,11.92,55.72,11.78,55.74,11.61Z"/><path class="cls-62" d="M89.64,14.65c-.67-.31-1.13,0-1.12.69v.21h0c0,.24,0,.49,0,.73s0,.24.13.25.19-.11.2-.24a2.25,2.25,0,0,0,0-.26c0-.18,0-.32.24-.32s.36,0,.42.23a2.08,2.08,0,0,1,.06.36c0,.12.05.26.22.22s.11-.15.1-.26a2.22,2.22,0,0,1,0-1.2C90,14.9,89.82,14.74,89.64,14.65Zm-.55.8c-.2,0-.25-.13-.26-.31s.19-.29.39-.28.35.06.35.29S89.31,15.46,89.09,15.45Z"/></g></g></svg>