<svg xmlns="http://www.w3.org/2000/svg" viewBox="0 0 88.6 33.01"><defs><style>.cls-1{fill:#ea1f27;}.cls-2{fill:#51b84c;}.cls-3{fill:#52b848;}.cls-4{fill:#67be5a;}.cls-5{fill:#56b94d;}.cls-6{fill:#5bbb51;}.cls-7{fill:#58ba50;}.cls-8{fill:#56b94e;}.cls-9{fill:#5cbb52;}.cls-10{fill:#57b94d;}.cls-11{fill:#6abe5d;}.cls-12{fill:#52b84d;}.cls-13{fill:#e91f26;}.cls-14{fill:#74c167;}.cls-15{fill:#56b94c;}.cls-16{fill:#5cbb51;}.cls-17{fill:#49b749;}.cls-18{fill:#40b54a;}</style></defs><g id="Layer_2" data-name="Layer 2"><g id="nestle-logo"><path class="cls-1" d="M32.85,12.7c1,0,1.25-.39,1.43-1.26C35,7.62,35.87,3.81,36.67,0H33c-.73,3.42-1.49,6.83-2.19,10.25C30.34,12.68,30.37,12.63,32.85,12.7Z"/><path class="cls-2" d="M51.81,28.65a1.84,1.84,0,0,0-2.48,1c-.37,1.44.42,2.22,2.06,2-.28.87-.28.94-1.31.83-.8-.09-.47.22-.29.55H51c.77-.56,1.41-3.35,1-4.18A.52.52,0,0,0,51.81,28.65Zm-1.19,2.59c-.66,0-.83-.54-.81-1.12s.27-1.13,1-1.13.77.56.67,1.07C51.58,30.79,51.34,31.27,50.62,31.24Z"/><path class="cls-3" d="M87.1,18C79.53,20.6,71.75,20.4,64,19.57c-8.15-.87-16.19-2.51-24.3-3.63-7.27-1-14.54-1.62-21.88-.68A38,38,0,0,0,0,22.2c1.91-.5,3.47-1,5.06-1.32,6.05-1.24,12.16-1,18.24-.42,7.36.67,14.65,1.93,22,2.92,7.82,1.05,15.65,1.95,23.56,1.37a38.7,38.7,0,0,0,13.91-3.34,20.31,20.31,0,0,0,5.85-3.84A9.23,9.23,0,0,0,87.1,18Z"/><path class="cls-1" d="M3.49,12.86c1.17.07,1.48-.39,1.62-1.43.26-2,.31-2,2.42-2,.32,0,.65,0,1,0a4.6,4.6,0,0,0,4.31-4.93C12.59,1.77,11.4.1,8.36.31c-.45,0-.89,0-1.34,0-.69,0-1.38,0-2.06,0s-1,0-1.18.91c-.57,3.21-1.29,6.39-2,9.59C1.4,12.83,1.4,12.75,3.49,12.86ZM6.3,6.11c.21-.89.39-1.79.55-2.7A.78.78,0,0,1,8,2.7,1.76,1.76,0,0,1,9.51,4.41,2.41,2.41,0,0,1,7.69,6.78a9.33,9.33,0,0,1-.94.09C6.37,6.94,6.17,6.71,6.3,6.11Z"/><path class="cls-3" d="M62.29,15.77a17.75,17.75,0,0,0,2.42.05c2.14-.11,3.22-.89,3.72-3,.67-2.73,1.19-5.5,1.76-8.25,0-.22.15-.63-.06-.65a24,24,0,0,0-2.4-.11c-.66,0-.31.64-.73,1a3.14,3.14,0,0,0-3.93-.89,4.73,4.73,0,0,0-2.68,4c-.18,1.43,0,2.81,1.26,3.69s2.53.47,3.69-.37c0,0,.13,0,.32,0A13.79,13.79,0,0,1,65,13.22c-.36.7-1.21,1.07-1.7.5a2.68,2.68,0,0,0-2.21-.88c-.41,0-.94-.51-1.21,0a1.64,1.64,0,0,0,.25,1.39A2.63,2.63,0,0,0,62.29,15.77Zm2.34-5.88c-.93-.05-1.19-.71-1.18-1.52,0-1.36,1-2.62,1.92-2.54s1,.77,1,1.3C66.31,8.73,65.52,9.94,64.63,9.89Z"/><path class="cls-3" d="M49.83,12.4a1.34,1.34,0,0,0,1.63-1c.14-.42.22-1,.9-.94.89,0,1.78,0,2.67,0,.38,0,.67.09.62.52-.15,1.45.72,1.53,1.8,1.41a6.61,6.61,0,0,1,1.09,0c.54,0,.79-.05.67-.72-.49-2.78-.9-5.57-1.34-8.35S57.41.47,54.51.47a1.28,1.28,0,0,0-1.3.81C52.37,2.88,51.47,4.45,50.6,6l-3.45,6.35C48.15,12.39,49,12.33,49.83,12.4Zm5.61-7.65c.76-.1,1.87-.42,2.17.09S57,6.11,56.55,6.66c-1.37,1.61-3.33,1.82-5.28,2-.51.05-1,0-1.82,0C51.46,7.07,52.91,5.1,55.44,4.75Z"/><path class="cls-1" d="M13.71,6.87c1.19-.13,2.72.62,3.27-1.23,0-.07.1-.13.17-.17.27-.15.52-.42.87-.19s.32.59.22,1A1.81,1.81,0,0,1,16.62,7.5a9.37,9.37,0,0,0-3.08,1.05,2.42,2.42,0,0,0-1.34,2.82,2.56,2.56,0,0,0,3,1.46,3.49,3.49,0,0,1,2.63-.14c.88.39,2.06.08,3.16.08-.43-1.74.24-3.27.5-4.85s.34-3.11-1.12-4.18c-2.15-1.59-6.27-.15-7.11,2.42C13.12,6.65,13.07,7,13.71,6.87Zm3.43,3.6c-.16.27-.43.53-.79.38A.71.71,0,0,1,16,9.93c.2-.85.88-1.16,1.64-1.42A2.72,2.72,0,0,1,17.14,10.47Z"/><path class="cls-1" d="M35.6,9.5a2.54,2.54,0,0,0,1.36,3,5.81,5.81,0,0,0,6.46-1.25c.35-.43.88-.95.67-1.46s-.88-.12-1.34-.16-.89,0-1.34,0a.65.65,0,0,0-.75.43c-.21.52-.56,1-1.17.78s-.46-.93-.4-1.49c.07-.79.42-1.14,1.25-1a16.05,16.05,0,0,0,1.7,0c.68,0,1.37,0,2.06,0s.8-.23.87-.84c.34-2.87-.62-4.14-3.5-4.5s-4.62.91-5.23,3.55C36,7.53,35.82,8.52,35.6,9.5Zm4.22-3.27c.12-.6.28-1.31,1-1.31s.66.67.71,1.2c.07.79-.48.66-1,.66S39.69,6.93,39.82,6.23Z"/><path class="cls-3" d="M77.49,9.22a3.45,3.45,0,0,0,2.56,3.16,6.41,6.41,0,0,0,3.58,0A5,5,0,0,0,87,6.85c-.26-2-1.82-3.22-4.15-3.22C79.42,3.63,77.27,5.88,77.49,9.22Zm5.14-3.37a1.28,1.28,0,0,1,1.25,1.59c0,1.69-.87,3-1.87,3-.84,0-1.42-.77-1.39-1.89C80.66,7,81.54,5.76,82.63,5.85Z"/><path class="cls-1" d="M24.66,12.88c.54,0,.76-.16.85-.73.27-1.67.65-3.32.94-5,.07-.41.16-.76.61-.72a.64.64,0,0,1,.61.76c0,.23,0,.47,0,.84,1.05-.37,1.91-.7,2.79-1,.34-.12.61-.23.55-.65a19.43,19.43,0,0,0-.28-2,1.28,1.28,0,0,0-1.65-1c-.81.13-1.6,1.17-2.47.09,0,0-.15,0-.23,0-.69,0-1.38.05-2.06,0s-.76.13-.85.7c-.35,2-.78,4-1.16,6C21.77,13,21.78,13,24.66,12.88Z"/><path class="cls-3" d="M72.55,12.4c.72.06,1-.23,1.09-.93a28.36,28.36,0,0,1,.78-3.4c.23-.79.74-1.69,1.58-1.65,1.43.08,1.54-1,2-1.79s.06-.95-.66-1c-1.15-.1-1.71.81-2.76,1.72.75-1.53,0-1.56-.81-1.49a3.56,3.56,0,0,1-.73,0c-.79-.13-1.1.18-1.25,1-.46,2.49-1,5-1.56,7.56C71.1,12.39,71.83,12.34,72.55,12.4Z"/><path class="cls-4" d="M38.1,28.71a5.7,5.7,0,0,0,0-.62c0-.26.12-.67-.3-.66s-.29.41-.29.66c0,1,0,2,0,3,0,.26-.11.67.31.65s.27-.42.28-.68c0-.45,0-.89,0-1.33s.3-.62.7-.67.67.26.7.65c0,.56,0,1.13.05,1.69,0,.16,0,.33.24.34s.27-.1.27-.15c0-.92.28-1.88-.25-2.72C39.37,28.23,38.71,28.63,38.1,28.71Z"/><path class="cls-5" d="M66.55,28.58a1.75,1.75,0,0,0-1.36,2.77c.54.84,1.35.29,2,.4.26,0,.36-.09.37-.32V27.35C66.66,27.57,67.59,28.56,66.55,28.58Zm-.29,2.74c-.79,0-.73-.64-.74-1.14s.17-1.19.9-1.19.65.65.63,1.05C67.08,30.74,67.12,31.35,66.26,31.32Z"/><path class="cls-6" d="M74.82,30.5a1.45,1.45,0,0,0,0-.36c0-1.61-.85-2.06-2.49-1.15.73.26,1.58-.44,1.92.6a11.68,11.68,0,0,0-1.32.3,1,1,0,0,0-.7,1,1,1,0,0,0,.69.9c.58.17,1.15-.12,1.73-.13C75,31.67,74.75,30.92,74.82,30.5Zm-1.26.83c-.35,0-.68,0-.7-.44,0-.62.46-.66.89-.75s.57,0,.54.36A.72.72,0,0,1,73.56,31.33Z"/><path class="cls-7" d="M30.71,28.6a1.32,1.32,0,0,0-1.7.77,1.7,1.7,0,0,0,.44,2.18,1.27,1.27,0,0,0,2-.42,2.4,2.4,0,0,1-.4.14c-.66.12-1.51.23-1.56-.62s.81-.26,1.24-.37.88.14.85-.54A1.06,1.06,0,0,0,30.71,28.6Zm.3,1c-.4.51-1,.11-1.65.24.26-.76.62-1.07,1.23-.85C30.85,29.1,31.18,29.41,31,29.62Z"/><path class="cls-8" d="M18.1,29a1.86,1.86,0,0,0,.19,2.51,1.42,1.42,0,0,0,2.07-.3c-.2-.22-.35,0-.51.05-.62.08-1.4.21-1.46-.59s.75-.3,1.16-.43.71.15.85-.25a1.08,1.08,0,0,0-.26-1.12A1.45,1.45,0,0,0,18.1,29Zm1.78.52c-.37.65-1,.14-1.67.35.31-.83.67-1.11,1.29-.88C19.74,29.1,20,29.34,19.88,29.55Z"/><path class="cls-9" d="M34.84,30c-.32-.14-1,0-.84-.62s.68-.34,1.11-.25a.34.34,0,0,0,.3-.07c.05-.06,0-.27,0-.3A1.69,1.69,0,0,0,34,28.61a.89.89,0,0,0-.67.9.93.93,0,0,0,.73.86c.39.11,1.1.08.9.68s-.81.26-1.26.16l-.54-.08a1.69,1.69,0,0,0,1.79.66,1,1,0,0,0,.7-.9C35.67,30.38,35.28,30.17,34.84,30Z"/><path class="cls-10" d="M62,28.57c-.51.18-1.38-.22-1.49.39a5.12,5.12,0,0,0,.19,2.81c.42-.62.22-1.3.27-1.95s.43-.74.9-.75.53.4.54.77,0,1,0,1.44c0,.19,0,.44.25.46s.3-.22.29-.41c0-.68,0-1.36-.07-2A.72.72,0,0,0,62,28.57Z"/><path class="cls-11" d="M22.64,27.76c-.81,1.22,0,2.56-.15,3.83,0,.06.16.18.26.18s.27-.14.27-.31A11.69,11.69,0,0,0,23,30c-.05-.58.08-1,.83-1-.14-.57-.83-.17-.79-.77s.79-.19,1-.67A1,1,0,0,0,22.64,27.76Z"/><path class="cls-12" d="M46.45,28.56c-.51,0-1.42.09-1.46.28a5.91,5.91,0,0,0,.12,2.92,2.93,2.93,0,0,0,.28-1.85c0-.56.27-.83.79-.84s.65.35.68.8a3.68,3.68,0,0,0,.25,1.9,4.55,4.55,0,0,0,.16-2.63A.74.74,0,0,0,46.45,28.56Z"/><path class="cls-13" d="M44.23,2.45c1.57,0,1.57,0,1.28-1.68L42.56,2.24l0,.21Z"/><path class="cls-14" d="M27,28.62a6.75,6.75,0,0,0-.68.19c-.82-.47-.74.13-.75.62a14,14,0,0,0,0,1.45c0,.32-.2.88.31.87s.27-.56.31-.88c.1-.69-.34-1.62.89-1.74a.23.23,0,0,0,.19-.35A.36.36,0,0,0,27,28.62Z"/><path class="cls-15" d="M16.31,28.72a3.26,3.26,0,0,0-.42.1A.71.71,0,0,0,16.31,28.72Z"/><path class="cls-15" d="M14.56,29.07a6.17,6.17,0,0,0,.13,3c.69-1.13-.3-2.74,1.2-3.26C15.33,28.82,14.73,28.4,14.56,29.07Z"/><path class="cls-16" d="M42.41,28.76c-.43-.05-.21.95-.2,1.46s-.3,1.45.23,1.44.09-.93.38-1.48C42.42,29.76,43.17,28.84,42.41,28.76Z"/><path class="cls-17" d="M57.88,31.77h.36v-3.1h-.36A15.29,15.29,0,0,0,57.88,31.77Z"/><path class="cls-18" d="M70.05,31.74A4.88,4.88,0,0,0,70,28.67,5.35,5.35,0,0,0,70.05,31.74Z"/></g></g></svg>