<svg width="56" height="56" viewBox="0 0 56 56" fill="none" xmlns="http://www.w3.org/2000/svg">
<circle cx="27.9515" cy="28.2061" r="26.7987" fill="url(#paint0_linear_99_245)" stroke="#D2BB6C" stroke-width="1.5"/>
<path d="M23.4547 36.8893H19.5775V24.4035H23.4547V36.8893ZM21.514 22.7003C20.2742 22.7003 19.2686 21.6734 19.2686 20.4336C19.2686 19.838 19.5051 19.2669 19.9262 18.8458C20.3473 18.4247 20.9185 18.1881 21.514 18.1881C22.1095 18.1881 22.6807 18.4247 23.1018 18.8458C23.5229 19.2669 23.7594 19.838 23.7594 20.4336C23.7594 21.6734 22.7534 22.7003 21.514 22.7003ZM37.966 36.8893H34.0971V30.8113C34.0971 29.3627 34.0679 27.5051 32.0812 27.5051C30.0654 27.5051 29.7565 29.0789 29.7565 30.7069V36.8893H25.8834V24.4035H29.602V26.1067H29.6563C30.1739 25.1257 31.4384 24.0904 33.3248 24.0904C37.2488 24.0904 37.9702 26.6744 37.9702 30.0307V36.8893H37.966Z" fill="#305349"/>
<defs>
<linearGradient id="paint0_linear_99_245" x1="7.76378" y1="2.15746" x2="68.015" y2="8.76048" gradientUnits="userSpaceOnUse">
<stop stop-color="#FFF1C1"/>
<stop offset="1" stop-color="#FFE075"/>
</linearGradient>
</defs>
</svg>
