<svg width="15" height="22" viewBox="0 0 15 22" fill="none" xmlns="http://www.w3.org/2000/svg">
<path d="M7.5 10.5614C6.7896 10.5614 6.10829 10.2849 5.60596 9.79258C5.10363 9.3003 4.82143 8.63262 4.82143 7.93643C4.82143 7.24023 5.10363 6.57255 5.60596 6.08027C6.10829 5.58799 6.7896 5.31143 7.5 5.31143C8.2104 5.31143 8.89171 5.58799 9.39404 6.08027C9.89637 6.57255 10.1786 7.24023 10.1786 7.93643C10.1786 8.28115 10.1093 8.62249 9.97468 8.94097C9.84007 9.25945 9.64276 9.54883 9.39404 9.79258C9.14531 10.0363 8.85002 10.2297 8.52505 10.3616C8.20007 10.4935 7.85175 10.5614 7.5 10.5614ZM7.5 0.586426C5.51088 0.586426 3.60322 1.3608 2.1967 2.73919C0.790176 4.11758 0 5.98708 0 7.93643C0 13.4489 7.5 21.5864 7.5 21.5864C7.5 21.5864 15 13.4489 15 7.93643C15 5.98708 14.2098 4.11758 12.8033 2.73919C11.3968 1.3608 9.48912 0.586426 7.5 0.586426Z" fill="white"/>
</svg>
