<svg width="21" height="19" viewBox="0 0 21 19" fill="none" xmlns="http://www.w3.org/2000/svg">
<path d="M2.1 18.5864C1.5225 18.5864 1.0283 18.3663 0.6174 17.926C0.2065 17.4858 0.0007 16.9559 0 16.3364V2.83643C0 2.21768 0.2058 1.68818 0.6174 1.24793C1.029 0.807676 1.5232 0.587176 2.1 0.586426H18.9C19.4775 0.586426 19.972 0.806926 20.3836 1.24793C20.7952 1.68893 21.0007 2.21843 21 2.83643V16.3364C21 16.9552 20.7945 17.485 20.3836 17.926C19.9727 18.367 19.4782 18.5872 18.9 18.5864H2.1ZM10.5 10.7114L2.1 5.08643V16.3364H18.9V5.08643L10.5 10.7114ZM10.5 8.46142L18.9 2.83643H2.1L10.5 8.46142ZM2.1 5.08643V2.83643V16.3364V5.08643Z" fill="white"/>
</svg>
