<svg width="19" height="20" viewBox="0 0 19 20" fill="none" xmlns="http://www.w3.org/2000/svg">
<path d="M3.82111 8.8092C5.34111 11.7964 7.79 14.2348 10.7772 15.7653L13.0994 13.4431C13.3844 13.1581 13.8067 13.0631 14.1761 13.1898C15.3583 13.5803 16.6356 13.7914 17.9444 13.7914C18.525 13.7914 19 14.2664 19 14.847V18.5309C19 19.1114 18.525 19.5864 17.9444 19.5864C8.03278 19.5864 0 11.5536 0 1.64198C0 1.06143 0.475 0.586426 1.05556 0.586426H4.75C5.33056 0.586426 5.80556 1.06143 5.80556 1.64198C5.80556 2.96143 6.01667 4.22809 6.40722 5.41032C6.52333 5.77976 6.43889 6.19143 6.14333 6.48698L3.82111 8.8092Z" fill="white"/>
</svg>
