<svg width="57" height="56" viewBox="0 0 57 56" fill="none" xmlns="http://www.w3.org/2000/svg">
<circle cx="28.4998" cy="28.2061" r="26.7987" fill="url(#paint0_linear_99_244)" stroke="#D2BB6C" stroke-width="1.5"/>
<path d="M37.6572 24.5208C37.6708 24.7107 37.6708 24.9006 37.6708 25.0904C37.6708 30.8812 33.2632 37.5536 25.2076 37.5536C22.7258 37.5536 20.4203 36.8348 18.481 35.5872C18.8336 35.6279 19.1726 35.6414 19.5388 35.6414C21.5866 35.6414 23.4717 34.9498 24.977 33.7699C23.0512 33.7292 21.4374 32.468 20.8814 30.7321C21.1526 30.7727 21.4238 30.7999 21.7087 30.7999C22.1019 30.7999 22.4952 30.7456 22.8614 30.6507C20.8543 30.2438 19.3489 28.4808 19.3489 26.3516V26.2974C19.932 26.6229 20.6101 26.8263 21.3289 26.8534C20.149 26.0668 19.376 24.7242 19.376 23.2053C19.376 22.3916 19.593 21.6457 19.9727 20.9948C22.129 23.6529 25.3703 25.3887 29.0048 25.5786C28.937 25.2531 28.8963 24.9141 28.8963 24.5751C28.8963 22.1611 30.8492 20.1946 33.2767 20.1946C34.538 20.1946 35.6771 20.7235 36.4773 21.5779C37.4673 21.3881 38.4166 21.0219 39.2574 20.5201C38.9319 21.5373 38.2403 22.3917 37.3317 22.9341C38.2132 22.8392 39.0676 22.595 39.8541 22.256C39.2575 23.1239 38.5116 23.8969 37.6572 24.5208Z" fill="#305349"/>
<defs>
<linearGradient id="paint0_linear_99_244" x1="8.31212" y1="2.15746" x2="68.5633" y2="8.76048" gradientUnits="userSpaceOnUse">
<stop stop-color="#FFF1C1"/>
<stop offset="1" stop-color="#FFE075"/>
</linearGradient>
</defs>
</svg>
